<?xml version="1.0" standalone="no"?>
<!DOCTYPE svg PUBLIC "-//W3C//DTD SVG 20010904//EN"
 "http://www.w3.org/TR/2001/REC-SVG-20010904/DTD/svg10.dtd">
<svg version="1.0" xmlns="http://www.w3.org/2000/svg"
 width="700.000000pt" height="700.000000pt" viewBox="0 0 700.000000 700.000000"
 preserveAspectRatio="xMidYMid meet">
<metadata>
Created by potrace 1.14, written by Peter Selinger 2001-2017
</metadata>
<g transform="translate(0.000000,700.000000) scale(0.100000,-0.100000)"
fill="#000000" stroke="none">
<path d="M2649 6219 c-74 -14 -130 -58 -157 -125 -13 -34 -1081 -3777 -1086
-3808 -8 -50 49 -105 104 -100 14 1 122 30 240 64 118 34 269 77 335 95 451
125 510 146 580 208 75 65 98 120 185 437 45 162 104 376 131 475 28 99 61
218 73 265 13 47 42 150 64 230 22 80 83 300 135 490 53 190 107 388 122 440
15 52 29 105 32 117 20 88 165 88 186 0 3 -12 17 -65 32 -117 15 -52 28 -102
30 -110 2 -8 13 -46 24 -85 11 -38 74 -268 141 -510 182 -661 274 -995 346
-1254 36 -128 74 -252 86 -274 28 -56 114 -138 173 -164 38 -18 639 -194 860
-253 17 -5 70 -20 118 -33 49 -14 97 -24 107 -22 51 10 84 47 82 95 0 14 -14
72 -30 130 -119 418 -634 2221 -641 2245 -6 17 -42 143 -80 280 -39 138 -75
264 -80 280 -10 31 -149 518 -156 545 -2 8 -20 74 -40 145 -64 225 -84 263
-162 300 -34 16 -103 18 -878 19 -463 0 -857 -2 -876 -5z"/>
<path d="M2518 1892 c4 -11 1 -13 -8 -7 -9 5 -11 4 -6 -3 10 -16 14 -15 25 6
7 14 6 19 -4 19 -7 0 -11 -7 -7 -15z"/>
<path d="M4425 1900 c-3 -6 1 -7 9 -4 18 7 21 14 7 14 -6 0 -13 -4 -16 -10z"/>
<path d="M2547 1879 c7 -7 15 -10 18 -7 3 3 -2 9 -12 12 -14 6 -15 5 -6 -5z"/>
<path d="M4490 1876 c0 -8 4 -17 9 -20 5 -4 7 3 4 14 -6 23 -13 26 -13 6z"/>
<path d="M2490 1866 c0 -3 9 -10 20 -16 11 -6 20 -8 20 -6 0 3 -9 10 -20 16
-11 6 -20 8 -20 6z"/>
<path d="M2540 1853 c13 -27 26 -29 38 -7 8 14 10 14 21 0 8 -9 18 -16 23 -16
6 0 0 9 -13 20 -22 17 -25 18 -36 3 -12 -15 -14 -15 -29 3 -14 18 -15 18 -4
-3z"/>
<path d="M4474 1846 c3 -16 8 -31 11 -35 3 -3 4 7 1 23 -3 16 -8 31 -11 35 -3
3 -4 -7 -1 -23z"/>
<path d="M4370 1856 c0 -13 37 -24 51 -15 12 9 12 10 -1 6 -8 -2 -23 0 -32 5
-10 5 -18 6 -18 4z"/>
<path d="M2476 1842 c-3 -4 4 -9 15 -9 23 -2 25 3 4 10 -8 4 -16 3 -19 -1z"/>
<path d="M2530 1826 c0 -4 7 -14 15 -22 13 -14 17 -14 30 0 8 8 15 18 15 22 0
3 -7 1 -15 -6 -12 -10 -18 -10 -30 0 -8 7 -15 9 -15 6z"/>
<path d="M2650 1821 c0 -7 -4 -9 -10 -6 -5 3 -10 2 -10 -4 0 -5 4 -12 9 -15
10 -6 25 24 16 32 -3 3 -5 0 -5 -7z"/>
<path d="M4353 1818 c-23 -11 -31 -28 -13 -28 6 0 10 5 10 10 0 6 6 10 14 10
8 0 18 5 21 10 8 13 -3 12 -32 -2z"/>
<path d="M4382 1799 c-37 -25 -46 -28 -60 -17 -9 8 -13 8 -9 2 4 -7 0 -14 -8
-18 -8 -3 -18 2 -23 11 -8 14 -10 13 -15 -2 -4 -9 -12 -13 -19 -9 -10 5 -10 4
0 -7 11 -12 14 -12 21 0 5 8 11 9 15 3 9 -15 -16 -30 -50 -27 -19 1 -31 -3
-31 -11 0 -7 6 -10 12 -7 8 2 12 -5 11 -19 -1 -13 2 -29 7 -35 12 -17 -3 -16
-25 1 -19 14 -25 32 -8 21 6 -3 10 -1 10 5 0 7 -7 9 -16 6 -12 -4 -14 -1 -9
14 4 12 2 20 -5 20 -6 0 -8 -5 -4 -12 5 -8 2 -9 -9 -5 -10 3 -17 2 -17 -3 0
-6 4 -10 10 -10 5 0 14 -10 21 -21 9 -17 8 -20 -3 -16 -7 2 -12 10 -10 16 1 6
-3 11 -8 11 -6 0 -10 -7 -8 -16 2 -10 -2 -19 -9 -21 -8 -3 -11 7 -8 29 2 18 1
27 -2 21 -2 -7 -11 -13 -19 -13 -8 0 -14 -5 -14 -11 0 -5 4 -8 9 -4 5 3 13 0
17 -6 4 -8 3 -9 -4 -5 -7 4 -12 2 -12 -4 0 -6 -11 -4 -25 6 -24 16 -25 16 -18
-2 6 -17 5 -17 -10 -5 -10 8 -20 11 -24 7 -3 -3 -2 -6 4 -6 5 0 10 -7 10 -15
0 -19 -7 -19 -22 2 -9 13 -14 13 -20 3 -5 -9 -4 -11 3 -6 7 4 12 3 12 -3 0
-19 -19 -21 -29 -4 -6 10 -11 13 -11 6 0 -7 -6 -10 -14 -7 -8 3 -17 0 -21 -5
-3 -6 -12 -8 -18 -4 -7 4 -7 1 1 -9 8 -9 19 -15 26 -12 7 3 13 -2 13 -11 0
-20 -9 -19 -40 5 -22 18 -26 18 -38 4 -10 -12 -14 -12 -20 -2 -7 11 -9 11 -9
0 0 -8 -5 -10 -12 -6 -7 4 -10 4 -6 -1 4 -4 0 -14 -10 -21 -14 -10 -15 -15 -4
-26 11 -11 16 -9 33 12 11 15 17 18 13 8 -4 -11 -1 -18 6 -18 6 0 9 4 5 9 -3
5 0 13 6 17 8 5 9 3 4 -7 -5 -8 1 -5 13 5 12 11 23 16 23 13 1 -4 2 -11 3 -16
2 -15 16 -26 16 -13 0 7 3 11 8 11 4 -1 9 0 12 1 14 5 49 6 45 0 -2 -4 2 -7
10 -7 8 0 11 5 8 11 -3 6 0 5 8 -3 11 -10 11 -15 1 -18 -6 -3 -9 -9 -6 -15 4
-6 13 -1 21 13 11 19 13 20 9 4 -6 -20 -6 -20 9 -1 9 12 15 15 15 7 0 -9 6 -6
18 6 9 10 13 13 8 6 -15 -22 3 -27 25 -8 17 17 22 17 29 5 9 -13 14 -7 11 12
0 4 6 5 13 2 16 -6 39 29 28 42 -4 5 1 2 11 -5 14 -11 17 -11 17 0 0 11 2 11
10 -1 7 -11 3 -21 -18 -38 -15 -12 -19 -20 -9 -16 20 7 22 -6 5 -26 -10 -11
-9 -11 6 0 11 8 17 10 14 5 -4 -6 3 -12 15 -12 14 -2 17 1 9 6 -10 6 -8 13 7
32 11 13 20 20 21 15 0 -5 8 -2 17 5 15 12 16 12 8 -1 -7 -13 -6 -13 6 -1 11
10 11 15 1 18 -6 3 -10 9 -7 13 3 5 12 7 20 4 11 -5 12 -11 4 -26 -9 -16 -8
-19 2 -13 8 6 10 4 4 -5 -6 -9 -4 -11 5 -5 9 5 11 4 6 -4 -9 -13 10 -41 28
-41 6 0 3 7 -6 14 -23 17 -23 23 2 36 17 9 19 8 13 -7 -6 -16 -5 -17 13 -3 10
8 27 23 37 35 18 20 18 20 7 -3 -11 -22 -10 -23 9 -13 11 6 22 7 25 2 3 -5 -1
-12 -10 -15 -8 -3 -12 -11 -8 -17 4 -8 9 -7 15 2 5 8 9 9 9 4 0 -6 -6 -17 -12
-24 -7 -8 -8 -11 -3 -8 6 3 11 -6 11 -19 1 -13 -2 -24 -6 -24 -5 0 -6 -15 -4
-32 4 -32 3 -32 -8 -8 -6 14 -12 28 -12 32 -1 4 -6 12 -13 19 -8 8 -11 5 -10
-15 1 -14 8 -28 14 -31 7 -2 10 -12 6 -21 -4 -12 -3 -15 5 -10 7 4 12 2 12 -4
0 -7 -8 -9 -19 -5 -20 6 -23 -8 -8 -32 16 -25 34 0 46 62 6 35 11 68 10 72 -1
4 0 10 1 13 1 3 3 21 4 40 1 19 5 41 10 49 6 9 5 12 -2 7 -6 -3 -13 -2 -17 4
-3 5 0 10 7 10 10 0 10 2 -1 9 -12 8 -12 10 0 14 8 2 5 3 -7 1 -13 -2 -21 2
-21 12 0 8 6 13 13 10 20 -8 29 15 10 26 -9 5 -14 13 -11 19 4 5 1 9 -4 9 -15
0 -14 -13 2 -29 10 -11 9 -13 -6 -7 -10 3 -21 6 -23 6 -3 0 -3 4 1 9 11 18
-16 23 -35 6 -17 -16 -19 -15 -30 6 -11 20 -13 20 -22 6 -5 -10 -6 -22 -3 -27
8 -14 -8 -13 -22 1 -9 9 -8 15 3 26 8 8 14 20 13 26 0 9 -2 8 -6 0 -6 -15 -23
-17 -23 -3 0 14 61 50 73 43 6 -3 7 -1 3 5 -4 7 1 10 14 9 22 -1 27 -13 8 -20
-7 -2 -1 -4 14 -4 25 0 26 1 11 15 -25 25 -45 23 -91 -9z m-36 -65 c-2 -7 4
-20 14 -29 14 -13 23 -14 37 -6 10 6 12 11 6 11 -7 0 -13 6 -13 13 1 6 9 1 20
-12 11 -12 17 -28 14 -33 -4 -6 -10 -5 -15 3 -7 11 -10 12 -21 1 -11 -11 -10
-13 1 -10 7 2 15 -2 18 -8 2 -6 -4 -11 -13 -11 -9 0 -19 9 -22 19 -2 11 -10
17 -18 14 -7 -3 -18 3 -26 11 -11 15 -11 16 5 10 11 -4 16 -3 12 4 -4 5 -15 7
-26 4 -11 -4 -19 -2 -19 4 0 6 7 11 15 11 8 0 15 5 15 10 0 12 -22 9 -32 -5
-4 -5 -5 -18 -2 -27 4 -13 1 -16 -10 -12 -18 7 -23 -21 -6 -31 11 -7 9 -55 -2
-55 -4 0 -8 2 -8 4 0 2 -3 13 -6 23 -5 15 -4 15 5 3 7 -9 11 -10 11 -3 0 19
-20 26 -26 9 -3 -9 -11 -16 -16 -16 -6 0 -5 7 3 16 10 13 10 17 -2 26 -12 8
-11 9 2 5 20 -6 19 31 -2 44 -20 13 -2 11 23 -2 13 -7 18 -7 14 -1 -3 6 6 20
20 31 21 17 30 19 41 9 8 -6 12 -17 9 -24z m121 -25 c2 -18 0 -19 -15 -8 -14
11 -15 11 -4 -1 14 -16 16 -34 3 -25 -5 3 -13 0 -17 -6 -5 -8 -3 -9 6 -4 9 5
10 2 6 -13 -4 -11 -2 -23 3 -27 7 -4 8 1 5 12 -5 15 -4 16 6 3 9 -13 10 -12 6
6 -4 11 0 28 7 38 12 16 14 16 14 2 0 -9 -4 -16 -9 -16 -4 0 -8 -4 -8 -10 0
-5 3 -9 8 -9 16 3 32 -1 31 -8 -1 -5 0 -10 1 -13 1 -3 3 -13 5 -23 3 -14 0
-16 -9 -8 -7 6 -16 7 -20 3 -4 -4 -7 -2 -6 3 5 21 0 27 -13 17 -13 -11 -42
-11 -53 1 -9 8 -34 -11 -34 -26 0 -6 7 -2 16 9 8 10 13 14 9 7 -3 -8 1 -11 15
-8 11 2 22 0 25 -6 4 -5 -4 -8 -17 -8 -13 1 -30 0 -38 -2 -9 -2 -15 3 -15 14
0 24 -29 41 -43 24 -6 -6 -12 -16 -14 -22 -1 -5 -6 -9 -10 -8 -4 2 -16 -9 -26
-22 -15 -19 -21 -22 -25 -11 -6 16 16 40 26 29 6 -6 11 11 8 30 0 4 3 7 7 7 4
0 8 9 9 20 1 11 -3 19 -9 17 -6 -1 -13 5 -15 13 -4 12 -3 12 5 2 7 -11 10 -11
16 3 3 9 10 14 15 10 12 -7 10 -45 -2 -45 -4 0 -5 -5 -1 -11 4 -8 9 -7 15 2 4
7 6 16 3 20 -2 4 3 10 12 13 8 3 13 2 10 -3 -6 -8 14 -21 42 -27 13 -2 38 34
34 50 -3 9 17 36 27 36 4 0 7 -9 8 -21z m-342 -65 c11 -1 25 1 30 5 6 3 21 6
35 6 19 0 25 -6 26 -22 1 -16 -4 -22 -17 -20 -24 4 -37 17 -18 18 8 1 17 1 22
0 4 0 7 4 7 9 0 6 -4 10 -8 10 -12 0 -49 -29 -37 -30 6 0 3 -5 -5 -11 -13 -9
-12 -10 3 -5 9 3 17 1 17 -4 0 -6 -5 -10 -12 -10 -6 0 -21 -8 -32 -17 -17 -15
-19 -15 -8 -1 16 20 -1 34 -17 14 -9 -11 -52 -14 -71 -6 -3 2 -14 4 -25 5 -11
1 -26 3 -32 3 -7 1 -12 8 -10 15 1 6 -6 11 -15 11 -10 -1 -15 2 -12 7 6 10 32
8 51 -4 6 -4 15 -3 18 3 5 8 11 7 21 -1 14 -11 19 -2 15 24 -1 5 3 6 8 3 5 -4
12 -2 16 4 4 6 12 7 18 3 6 -4 21 -8 32 -9z m-217 -50 c-1 -5 -9 -9 -16 -10
-10 -2 -11 1 -1 12 12 14 24 13 17 -2z m297 6 c3 -5 1 -10 -4 -10 -6 0 -11 5
-11 10 0 6 2 10 4 10 3 0 8 -4 11 -10z m-347 -29 c-7 -11 -16 -17 -21 -14 -4
3 0 11 10 19 24 18 25 17 11 -5z"/>
<path d="M4351 1647 c2 -1 11 -8 21 -15 12 -10 18 -10 24 -1 4 7 3 9 -4 5 -6
-3 -13 -2 -17 4 -3 5 -11 10 -17 10 -6 0 -9 -1 -7 -3z"/>
<path d="M4415 1640 c-3 -5 -1 -10 4 -10 6 0 11 5 11 10 0 6 -2 10 -4 10 -3 0
-8 -4 -11 -10z"/>
<path d="M4480 1643 c0 -6 8 -17 18 -24 16 -13 16 -13 2 6 -8 11 -16 22 -17
24 -2 2 -3 0 -3 -6z"/>
<path d="M4064 1625 c-11 -17 -20 -22 -28 -16 -7 6 -18 4 -31 -5 -19 -15 -19
-15 7 -10 14 2 29 2 33 -2 12 -12 55 -9 66 5 9 11 15 11 28 1 9 -7 13 -8 8 -3
-4 4 0 20 10 34 15 24 15 25 0 12 -10 -8 -20 -11 -24 -7 -3 3 -15 -2 -26 -11
-19 -17 -20 -17 -14 -1 10 28 -11 31 -29 3z m21 5 c-13 -20 7 -32 25 -15 14
13 20 14 26 3 4 -7 4 -10 -1 -6 -4 4 -15 2 -23 -4 -8 -7 -25 -13 -37 -14 -22
-1 -23 0 -8 23 15 22 31 34 18 13z"/>
<path d="M2468 1813 c6 -2 9 -10 6 -15 -4 -7 -2 -8 4 -4 18 11 14 26 -5 25
-11 0 -13 -3 -5 -6z"/>
<path d="M2510 1807 c0 -8 -9 -19 -20 -22 -11 -3 -20 -11 -20 -16 0 -14 40 9
47 27 3 8 3 18 -1 21 -3 4 -6 -1 -6 -10z"/>
<path d="M2601 1809 c-1 -9 6 -22 14 -29 15 -13 12 -30 -6 -30 -6 0 -7 6 -3
13 7 12 -45 -30 -57 -47 -4 -4 -9 -2 -11 5 -3 8 -9 10 -14 6 -9 -8 15 -29 26
-22 4 2 7 -8 7 -24 0 -16 -6 -28 -13 -28 -7 0 -12 10 -11 21 1 15 -3 21 -16
20 -12 -1 -16 3 -13 15 4 10 -4 22 -24 33 -21 12 -28 22 -24 35 5 15 4 15 -4
3 -6 -8 -8 -18 -5 -23 3 -5 -1 -14 -8 -19 -10 -6 -7 -7 9 -3 21 6 22 5 11 -14
-9 -14 -17 -17 -25 -10 -9 8 -12 4 -10 -15 2 -15 0 -26 -5 -26 -4 0 -6 -14 -4
-30 2 -17 0 -28 -4 -25 -5 2 -7 -11 -5 -30 2 -23 -1 -33 -7 -29 -8 4 -8 1 -1
-13 6 -11 7 -25 2 -33 -5 -8 -6 -18 -3 -23 3 -5 7 -30 9 -56 2 -25 5 -53 7
-61 2 -8 8 -34 12 -57 4 -24 11 -43 14 -43 4 0 8 -13 9 -30 3 -41 73 -191 85
-183 6 3 7 1 3 -5 -9 -15 18 -55 29 -44 5 4 5 2 1 -5 -14 -24 82 -153 114
-153 24 0 53 24 55 46 1 10 9 34 19 52 9 18 14 38 10 45 -4 7 -4 9 1 5 8 -8
35 15 35 29 0 5 14 17 30 27 17 9 27 22 24 28 -4 6 -3 8 3 5 6 -4 31 0 57 9
42 15 68 15 157 1 28 -4 109 -50 136 -76 68 -68 93 -137 99 -280 10 -218 44
-364 114 -487 62 -108 193 -224 252 -224 57 0 78 64 53 160 -16 59 -23 209
-12 250 2 8 7 29 12 45 28 104 131 224 245 284 88 46 197 120 219 147 10 13
21 21 23 18 3 -2 28 22 56 53 68 77 72 81 72 88 0 3 9 14 20 25 11 11 20 27
20 35 0 8 5 15 11 15 6 0 8 7 5 16 -3 8 -2 13 3 10 11 -7 23 22 14 36 -3 6 -1
8 4 5 12 -7 60 99 55 121 -2 6 2 12 8 12 5 0 10 5 10 11 0 5 -4 8 -9 4 -12 -6
-43 24 -36 35 7 12 -23 33 -36 24 -7 -4 -9 -3 -6 3 4 6 0 14 -9 17 -11 4 -15
2 -11 -8 4 -9 -1 -17 -13 -21 -31 -10 -43 -31 -31 -54 9 -17 8 -22 -10 -31
-11 -7 -23 -9 -26 -7 -2 3 5 8 16 12 17 5 19 10 10 26 -5 11 -14 17 -20 14 -5
-4 -9 -2 -9 2 0 5 10 13 23 18 17 8 22 19 23 48 0 21 -3 40 -8 43 -8 5 -12
-10 -9 -34 2 -10 -4 -12 -18 -7 -21 6 -26 -5 -22 -42 1 -7 -9 -11 -26 -9 -32
4 -69 -17 -76 -43 -5 -19 -35 -24 -54 -9 -6 5 -9 16 -6 24 3 8 0 14 -6 14 -6
0 -12 -4 -12 -10 -1 -5 -2 -15 -3 -22 0 -6 -7 -12 -14 -14 -7 -1 -8 0 -2 3 5
2 8 8 5 12 -2 5 2 17 10 27 15 19 15 19 30 0 8 -10 12 -23 9 -27 -2 -4 5 -7
16 -6 11 1 19 6 16 13 -2 6 9 18 24 28 17 10 27 22 24 30 -3 8 -1 17 5 21 6 3
9 0 5 -8 -3 -10 2 -14 17 -13 12 0 24 7 27 15 3 9 0 11 -7 6 -7 -4 -18 1 -25
10 -12 17 -14 16 -29 -5 -9 -13 -13 -28 -10 -33 3 -6 1 -7 -5 -3 -7 4 -12 3
-12 -1 0 -5 -10 -14 -22 -22 -13 -7 -20 -10 -16 -6 4 5 0 14 -10 21 -9 8 -12
14 -5 14 6 0 15 -5 18 -10 4 -7 16 -1 31 15 29 32 30 40 3 42 -16 2 -18 -1
-10 -11 13 -16 -9 -29 -32 -20 -7 2 -22 -4 -32 -16 -10 -11 -23 -20 -28 -20
-6 0 -2 7 9 15 10 8 14 15 7 15 -6 0 -19 -8 -29 -17 -15 -16 -15 -17 2 -24 15
-6 16 -8 3 -8 -9 -1 -23 7 -30 16 -8 9 -9 14 -3 10 21 -12 27 26 7 41 -13 10
-14 13 -3 11 23 -4 61 11 55 22 -4 5 -14 5 -23 1 -9 -5 -26 -8 -38 -7 -16 2
-21 -4 -21 -26 0 -23 3 -26 14 -18 8 8 13 8 13 1 0 -18 -24 -20 -42 -4 -11 9
-18 10 -18 4 0 -6 10 -18 22 -26 12 -9 19 -18 17 -21 -10 -9 -50 37 -45 51 3
8 2 14 -3 14 -16 0 -20 -13 -10 -31 6 -13 6 -19 -1 -19 -5 0 -10 7 -10 16 0
13 -3 14 -14 5 -10 -9 -15 -8 -19 2 -6 16 -42 16 -58 0 -8 -8 -8 -13 0 -17 6
-4 11 -2 11 3 0 6 5 11 12 11 9 0 9 -3 0 -12 -7 -7 -12 -17 -12 -22 1 -6 10 0
20 13 11 13 20 19 20 13 0 -6 -6 -17 -13 -24 -8 -7 -16 -20 -20 -28 -4 -12 -6
-11 -6 3 -1 9 -14 31 -31 49 -32 33 -36 43 -20 53 5 3 7 12 4 20 -4 8 -10 12
-16 9 -5 -3 -7 -8 -4 -11 3 -3 1 -14 -4 -24 -7 -12 -7 -20 0 -24 5 -3 10 -14
9 -23 0 -14 -2 -14 -8 2 -10 25 -50 28 -64 4 -7 -10 -15 -18 -20 -18 -4 0 -5
5 -1 12 5 7 2 9 -9 5 -11 -4 -14 -2 -10 9 4 10 9 11 18 4 9 -7 12 -2 12 19 0
20 -4 28 -14 24 -7 -3 -10 -9 -7 -14 3 -5 -3 -6 -12 -2 -10 4 -15 2 -11 -3 3
-6 2 -16 -2 -23 -7 -11 -13 -9 -30 8 -13 13 -16 21 -8 22 6 1 17 2 22 4 6 1
15 3 20 3 6 1 11 13 11 26 2 22 -1 23 -17 13 -13 -8 -15 -13 -6 -19 7 -4 5 -7
-8 -7 -46 -1 -52 -4 -52 -33 0 -21 3 -25 12 -18 9 7 14 6 18 -4 4 -11 1 -13
-10 -9 -11 4 -14 2 -9 -5 4 -7 3 -12 -1 -12 -5 0 -13 8 -20 18 -14 24 -54 21
-64 -4 -6 -16 -8 -16 -8 -2 -1 9 4 20 9 23 6 4 7 11 4 17 -9 13 -34 -31 -27
-48 2 -7 -1 -15 -7 -19 -12 -7 -40 11 -40 27 0 5 7 2 16 -7 9 -9 19 -13 22
-10 4 3 0 10 -8 15 -10 7 -11 10 -2 10 6 0 12 4 12 8 0 14 -41 7 -51 -9 -5 -8
-9 -9 -9 -3 0 5 5 15 11 21 6 6 7 13 1 17 -5 3 -14 -6 -20 -20 -10 -20 -9 -26
3 -30 8 -4 15 -11 15 -17 0 -5 -9 -2 -20 8 -11 10 -20 13 -20 7 0 -6 5 -14 10
-17 14 -8 13 -25 -2 -25 -6 0 -8 3 -5 7 4 3 2 12 -4 19 -7 9 -7 19 0 32 8 15
7 23 -2 30 -20 16 -51 22 -66 13 -9 -6 -5 -8 14 -8 35 0 52 -17 37 -36 -7 -8
-9 -17 -5 -20 3 -4 1 -7 -5 -7 -15 0 -15 13 0 28 17 17 4 25 -43 25 -24 0 -45
-6 -50 -14 -6 -10 -9 -11 -9 -1 0 7 11 17 25 22 14 5 25 14 25 19 0 6 -10 5
-22 -2 -47 -25 -49 -27 -38 -48 6 -11 7 -25 3 -32 -4 -6 -8 -18 -9 -25 -2 -8
-5 -17 -8 -20 -4 -3 -5 4 -3 16 2 12 6 25 10 28 17 17 5 25 -13 9 -11 -10 -20
-13 -20 -8 0 6 6 13 13 16 12 4 13 32 5 105 -1 7 -8 10 -15 7 -8 -3 -18 -5
-21 -5 -4 0 -1 -4 7 -9 7 -5 14 -27 15 -50 1 -22 0 -38 -3 -36 -2 3 -10 -4
-18 -15 -8 -11 -19 -20 -25 -20 -7 0 -2 9 10 20 26 25 29 42 5 34 -15 -5 -16
-4 -3 5 8 6 13 11 10 12 -3 0 -15 2 -27 5 -13 2 -23 -1 -23 -6 0 -6 5 -10 11
-10 5 0 7 -5 3 -11 -9 -16 -25 11 -19 32 4 12 -1 16 -17 15 -13 -1 -31 1 -40
6 -9 4 -19 4 -23 -1 -6 -11 32 -26 55 -23 13 3 13 2 0 -7 -17 -11 -21 -57 -8
-83 6 -13 3 -20 -12 -28 -12 -6 -20 -7 -20 -1 0 5 7 11 15 13 9 2 12 8 6 17
-7 11 -13 9 -30 -8 -12 -12 -27 -19 -33 -15 -8 5 -9 2 -5 -10 4 -11 3 -15 -4
-11 -13 8 -6 30 9 31 7 1 17 2 24 3 6 0 9 4 5 7 -3 4 4 15 16 25 19 16 20 20
7 29 -23 15 -34 12 -19 -7 10 -11 10 -14 2 -9 -7 4 -13 2 -13 -3 0 -6 -5 -11
-11 -11 -8 0 -8 4 0 14 9 10 7 17 -5 27 -14 11 -18 10 -31 -6 -14 -19 -14 -19
-11 -1 4 23 -52 60 -64 42 -6 -8 -10 -8 -15 0 -6 8 -17 6 -38 -6 -22 -12 -30
-23 -29 -43 1 -15 -3 -24 -7 -21 -5 3 -9 0 -9 -5 0 -6 -5 -11 -10 -11 -6 0 -4
10 5 23 8 13 12 26 9 29 -3 4 4 16 15 27 12 12 21 27 21 33 0 7 -7 3 -15 -9
-10 -14 -21 -20 -32 -16 -11 4 -14 3 -9 -5 4 -7 2 -10 -6 -7 -9 4 -14 -2 -15
-15 -2 -22 12 -27 20 -7 3 6 6 8 6 2 0 -5 -4 -17 -9 -25 -9 -13 -11 -13 -20 0
-5 8 -7 27 -4 43 4 25 3 26 -15 15 -14 -9 -17 -15 -8 -20 6 -4 8 -10 4 -15 -9
-9 -28 17 -21 29 3 4 2 8 -3 8 -15 0 -28 -15 -31 -34 -3 -17 -2 -18 12 -7 9 8
16 10 16 6 0 -4 -8 -14 -17 -22 -17 -14 -17 -14 0 -9 47 16 50 16 24 1 -20
-11 -32 -13 -46 -5 -16 8 -23 4 -40 -23 -11 -17 -21 -27 -21 -21 0 23 40 63
58 57 15 -6 15 -5 3 10 -7 9 -19 17 -26 17 -8 0 -16 6 -18 13 -4 10 -6 10 -6
0 -1 -7 -6 -13 -13 -13 -9 0 -9 3 0 12 17 17 15 33 -2 19 -8 -6 -18 -11 -22
-10 -20 3 -34 -2 -34 -12 0 -6 9 -8 23 -4 22 7 22 7 2 -8 -22 -17 -38 -4 -30
24 4 12 -1 16 -22 15 -16 0 -28 4 -28 11 0 6 -3 15 -7 19 -5 4 -8 -2 -8 -12 0
-26 18 -44 39 -37 13 4 13 2 -2 -7 -10 -6 -16 -20 -14 -33 2 -12 2 -16 0 -9
-3 7 -8 10 -12 8 -4 -3 -13 0 -21 6 -12 8 -11 9 3 4 12 -4 17 -2 14 6 -2 7
-13 11 -23 10 -28 -6 -31 -12 -10 -27 18 -14 18 -14 -1 -12 -29 2 -26 36 4 48
14 5 23 12 20 15 -3 3 -18 0 -34 -8 -22 -11 -28 -19 -26 -43 2 -27 1 -27 -5
-6 -7 21 -9 22 -21 7 -9 -10 -10 -16 -2 -16 6 0 11 -5 11 -12 0 -6 -8 -4 -19
6 -14 13 -20 14 -23 5 -3 -9 -6 -8 -11 3 -4 13 -1 16 14 13 13 -3 19 0 16 8
-2 7 -13 11 -23 10 -10 -1 -13 0 -6 3 10 5 10 9 0 22 -11 15 -11 15 3 5 9 -7
19 -10 22 -6 9 9 9 23 0 22 -24 -4 -31 4 -28 29 1 15 8 26 15 24 6 -1 9 2 6 7
-4 5 -2 12 4 16 13 8 13 25 0 25 -5 0 -10 -6 -10 -14 0 -8 -4 -18 -10 -21 -5
-3 -10 -1 -10 4 0 16 39 53 49 46 5 -2 8 3 7 11 0 10 8 18 19 20 19 3 19 2 2
-10 -15 -12 -15 -14 -3 -19 9 -4 18 -2 21 4 4 5 11 6 17 3 16 -10 -14 -24 -37
-18 -16 5 -18 4 -8 -7 16 -16 43 -21 43 -8 0 6 4 8 9 4 5 -3 12 -1 16 5 4 6
11 7 17 4 7 -5 8 -2 3 6 -6 9 -4 11 5 5 8 -5 11 -4 7 2 -3 5 0 10 8 10 8 0 11
-5 8 -10 -4 -6 -1 -7 7 -2 9 6 11 4 5 -6 -7 -11 -5 -11 11 1 18 14 18 14 5 -3
-12 -15 -12 -20 -1 -30 10 -10 12 -9 7 5 -3 10 3 23 16 35 l22 18 -20 -25 -20
-25 20 15 c19 14 19 14 5 -5 -14 -18 -13 -19 1 -8 9 7 20 9 24 5 5 -4 5 -2 2
4 -4 6 6 10 26 9 18 0 31 -6 30 -12 -3 -15 25 -25 33 -12 3 6 1 16 -5 22 -9 9
-10 7 -5 -8 8 -22 6 -20 -16 10 -8 11 -10 17 -6 13 5 -4 16 -2 24 5 13 10 14
9 8 -3 -4 -8 2 -4 13 10 l21 25 21 -25 c11 -14 17 -18 13 -10 -6 12 -5 13 8 3
8 -7 18 -9 23 -5 4 4 0 -6 -11 -22 -18 -29 -18 -29 1 -19 11 6 26 8 34 5 10
-3 12 0 8 12 -4 11 -3 15 4 11 6 -4 8 -14 5 -24 -4 -11 -1 -10 9 4 14 18 14
20 1 23 -16 3 -11 32 6 32 5 0 7 -4 3 -9 -3 -5 -1 -12 3 -15 5 -3 8 -17 6 -31
-1 -16 2 -25 9 -22 15 5 16 48 0 54 -7 3 -11 9 -8 14 6 9 35 1 33 -9 -1 -4 2
-15 7 -25 5 -13 10 -15 15 -7 5 9 9 9 14 1 4 -6 2 -11 -4 -11 -6 0 -8 -5 -5
-11 5 -6 12 -4 22 8 8 10 11 12 7 4 -5 -9 -3 -12 5 -7 6 4 9 12 6 17 -4 5 -2
9 4 9 5 0 11 -3 14 -7 2 -5 2 -3 1 4 -2 6 5 17 14 25 13 11 15 11 8 -2 -4 -8
-1 -7 7 3 13 16 15 16 21 1 4 -9 12 -14 22 -10 10 4 13 2 8 -6 -5 -7 -3 -8 6
-3 8 5 11 4 6 -3 -4 -6 -12 -9 -20 -6 -7 3 -13 -1 -13 -9 0 -14 32 -16 44 -2
5 4 2 5 -6 0 -9 -5 -12 -4 -7 3 11 18 27 14 24 -4 -2 -10 2 -19 9 -21 7 -3 11
3 9 14 -3 13 3 18 21 19 17 2 23 -2 19 -12 -4 -11 -1 -12 12 -6 15 7 25 8 48
3 4 0 1 -8 -6 -16 -20 -24 -6 -28 15 -5 10 11 13 20 7 20 -7 0 -11 6 -10 12 2
8 -9 13 -29 12 -18 0 -33 3 -33 7 0 4 -12 6 -26 3 -19 -3 -24 -1 -18 8 5 10 4
11 -7 1 -16 -16 -33 -17 -23 -1 4 6 3 8 -4 4 -5 -3 -12 -1 -14 5 -2 5 -18 11
-35 11 -21 1 -30 5 -26 12 4 6 -2 3 -13 -6 -22 -19 -48 -18 -67 1 -10 10 -8
12 8 9 11 -1 23 -7 27 -13 4 -5 10 -6 15 -1 7 7 -20 28 -42 32 -5 1 -17 3 -25
5 -8 2 -14 -2 -12 -8 1 -7 -3 -13 -9 -13 -6 0 -9 9 -6 20 3 11 1 18 -4 14 -20
-12 -50 -13 -46 -1 2 7 13 11 23 9 15 -2 16 -1 4 7 -10 7 -19 6 -29 -2 -12
-10 -14 -9 -8 6 4 12 3 16 -4 11 -6 -4 -15 0 -20 7 -6 10 -9 10 -9 2 0 -7 -7
-10 -15 -7 -8 4 -15 1 -15 -6 0 -6 5 -8 10 -5 6 3 10 2 10 -2 0 -5 -9 -14 -19
-20 -18 -11 -19 -9 -17 32 2 35 0 42 -11 34 -9 -8 -14 -7 -19 5 -5 13 -9 14
-20 5 -17 -14 -18 2 -1 20 10 11 10 13 0 7 -7 -4 -13 -2 -13 3 0 6 -5 11 -11
11 -7 0 -8 -5 -3 -12 13 -18 11 -51 -3 -55 -8 -3 -10 5 -7 22 3 19 1 24 -7 19
-9 -5 -10 -2 -5 12 5 14 4 16 -4 8 -9 -9 -9 -17 -1 -33 8 -14 8 -21 1 -21 -6
0 -13 7 -16 15 -4 8 -10 12 -15 9 -5 -3 -9 2 -9 10 0 13 -4 12 -21 -5 -11 -11
-24 -18 -27 -14 -4 4 2 13 12 21 11 7 16 17 13 21 -4 3 -7 3 -7 -1 0 -11 -26
16 -33 34 -4 12 -6 12 -6 -1z m19 -91 c0 -6 -8 -4 -17 3 -10 7 -15 9 -10 4 4
-4 0 -16 -9 -26 -12 -13 -13 -22 -5 -37 6 -12 8 -29 5 -39 -4 -13 -3 -15 4 -4
7 9 12 10 16 2 6 -10 -6 -15 -18 -8 -3 1 -17 -9 -33 -23 -15 -14 -25 -21 -21
-16 4 5 3 15 -3 23 -9 10 -15 11 -28 1 -13 -10 -14 -10 -3 2 6 8 12 18 12 22
0 13 -42 3 -54 -13 -6 -8 -19 -20 -28 -27 -13 -11 -16 -11 -14 0 1 7 5 18 9
25 4 6 4 18 1 27 -4 11 0 16 12 16 11 0 15 4 9 8 -19 13 -15 38 5 39 13 1 18
-2 13 -10 -11 -18 -11 -47 0 -54 6 -3 7 -2 4 4 -3 5 0 10 8 10 8 0 11 -5 8
-10 -3 -6 -1 -7 6 -3 6 4 9 12 5 17 -3 5 -9 7 -14 4 -5 -3 -8 3 -7 14 1 15 8
19 29 19 28 -1 36 -12 18 -23 -5 -3 -10 -14 -10 -23 0 -15 2 -15 11 -2 8 12 9
9 4 -10 l-6 -25 15 25 c9 14 15 19 16 11 0 -31 14 2 15 38 1 43 23 75 43 59 6
-6 12 -15 12 -20z m76 1 c19 -11 34 -23 34 -25 0 -3 -4 -3 -9 1 -5 3 -12 1
-16 -4 -3 -6 -12 -8 -20 -5 -8 4 -12 10 -9 15 3 5 10 6 16 3 7 -5 8 -2 3 5 -5
9 -10 10 -18 2 -17 -17 -27 -13 -20 6 6 15 5 16 -9 3 -9 -8 -13 -17 -9 -20 12
-10 11 -30 -3 -30 -18 0 -14 49 5 61 19 12 17 12 55 -12z m-201 2 c7 -12 -12
-24 -25 -16 -11 7 -4 25 10 25 5 0 11 -4 15 -9z m300 -8 c12 -9 14 -14 5 -10
-10 3 -16 -1 -16 -13 0 -12 5 -16 15 -12 13 5 14 4 1 -10 -11 -12 -19 -13 -32
-4 -10 6 -18 14 -18 19 0 4 5 5 10 2 6 -3 10 -1 10 4 0 18 -19 12 -30 -8 -15
-29 -13 -33 13 -26 18 5 19 4 5 -5 -22 -14 -43 -4 -45 20 -1 11 2 18 7 15 4
-3 15 6 24 20 19 29 24 30 51 8z m-180 -45 c-4 -21 -1 -22 26 -7 11 5 17 14
14 20 -4 5 -1 9 4 9 6 0 11 -7 11 -15 0 -8 5 -15 11 -15 5 0 7 4 4 10 -3 6 1
7 9 4 9 -3 15 -9 14 -12 -2 -22 5 -29 30 -28 15 0 30 5 34 11 5 6 8 4 8 -5 0
-13 1 -13 11 0 8 11 12 12 15 3 4 -8 16 -2 34 17 l29 30 17 -25 c9 -14 21 -22
27 -18 6 3 7 1 3 -5 -4 -7 -2 -12 3 -12 6 0 11 5 11 12 0 6 6 4 13 -7 14 -19
43 -12 31 7 -4 7 -2 8 5 4 6 -4 9 -11 6 -16 -12 -19 48 -46 70 -32 6 4 0 -3
-14 -15 -14 -12 -30 -19 -35 -15 -6 4 -15 7 -21 7 -5 0 -10 5 -10 12 0 16 -9
23 -38 29 -20 3 -29 -1 -39 -18 -7 -13 -12 -26 -11 -29 1 -3 -5 -6 -12 -6 -11
0 -12 4 -4 14 6 7 9 13 5 13 -15 0 -23 3 -48 22 -26 18 -28 18 -54 1 -15 -9
-32 -18 -38 -19 -6 -1 -25 -4 -43 -7 -24 -4 -30 -2 -26 9 5 15 -8 19 -21 7
-12 -12 -37 -12 -34 0 1 7 -6 27 -16 45 -14 27 -15 36 -5 48 15 18 29 1 24
-28z m396 -233 c5 -4 9 -12 9 -18 0 -8 -3 -7 -9 2 -6 8 -26 14 -51 14 -25 0
-45 -6 -51 -14 -6 -10 -9 -11 -9 -1 0 24 79 36 111 17z m-401 -36 c0 -28 -15
-23 -16 6 -1 14 2 22 7 19 5 -3 9 -14 9 -25z m555 -8 l-7 -26 24 23 c14 12 28
22 32 22 4 0 -4 -11 -18 -24 -15 -13 -26 -29 -26 -36 0 -29 -11 1 -15 39 -2
26 0 39 6 35 6 -3 8 -18 4 -33z m1165 27 c0 -4 -7 -8 -15 -8 -8 0 -15 4 -15 8
0 5 7 9 15 9 8 0 15 -4 15 -9z m-1654 -9 c4 -8 9 -7 15 2 4 7 10 11 13 9 2 -3
-5 -16 -16 -30 -16 -20 -19 -21 -16 -6 1 10 -2 21 -9 23 -12 4 -12 -35 1 -55
3 -6 -3 -16 -14 -22 -13 -7 -20 -7 -20 0 0 5 7 10 15 10 9 0 12 6 8 16 -4 10
-13 14 -27 10 -21 -5 -21 -5 -1 10 11 8 21 19 21 24 3 18 4 20 13 20 6 0 13
-5 17 -11z m329 -6 c20 -12 20 -12 -2 -10 -12 0 -19 5 -17 9 3 4 0 8 -5 8 -6
0 -11 -8 -11 -17 -1 -17 -1 -17 -11 0 -5 9 -14 17 -20 17 -15 0 13 -38 35 -48
19 -8 19 -9 1 -16 -11 -4 -17 -4 -13 -1 3 3 -5 17 -19 31 -13 13 -22 28 -19
33 8 12 56 8 81 -6z m377 9 c-6 -2 -10 -7 -8 -11 8 -12 -53 -73 -64 -66 -5 3
-10 -1 -10 -9 0 -9 -5 -16 -10 -16 -7 0 -7 6 0 20 6 11 14 19 18 19 17 -3 35
2 29 7 -3 4 4 15 16 26 18 16 19 19 4 14 -11 -3 -16 -2 -12 4 3 6 1 10 -4 10
-6 0 -11 -7 -11 -15 0 -8 -5 -15 -10 -15 -7 0 -7 6 -1 18 7 12 21 19 43 19 18
0 27 -2 20 -5z m-322 -22 c-6 -11 -15 -18 -20 -15 -5 3 -10 -4 -12 -15 -2 -12
-7 -20 -13 -20 -5 1 -13 -7 -17 -17 -7 -17 -8 -17 -5 0 1 10 7 18 12 17 6 -1
13 9 16 22 3 13 11 22 17 21 7 -2 12 4 12 12 0 8 5 15 10 15 7 0 7 -7 0 -20z
m544 11 c3 -4 0 -13 -6 -21 -8 -12 -9 -12 -4 3 3 9 1 17 -4 17 -16 0 -22 -21
-10 -35 12 -15 5 -39 -10 -30 -5 3 -11 -2 -13 -10 -3 -11 -4 -10 -3 2 1 10 8
17 14 16 15 -4 16 14 1 23 -6 3 -15 0 -20 -7 -4 -7 -11 -10 -15 -6 -4 4 2 14
14 23 12 8 20 19 18 23 -3 4 4 7 14 8 11 1 22 -2 24 -6z m190 -3 c-2 -4 5 -12
16 -18 21 -11 27 -30 9 -30 -5 0 -7 5 -4 10 3 6 0 10 -8 10 -8 0 -17 7 -21 15
-3 8 -10 15 -15 15 -5 0 -5 -12 2 -29 6 -16 15 -29 21 -28 5 1 11 -7 13 -18 3
-18 2 -18 -5 -2 -4 10 -12 18 -17 17 -10 -2 -36 56 -28 63 8 8 42 4 37 -5z
m606 2 c0 -5 -4 -10 -10 -10 -5 0 -10 5 -10 10 0 6 5 10 10 10 6 0 10 -4 10
-10z m-680 -28 c-7 -3 -19 3 -28 13 -16 15 -15 16 12 4 15 -7 23 -15 16 -17z
m125 18 c3 -5 1 -10 -4 -10 -6 0 -11 5 -11 10 0 6 2 10 4 10 3 0 8 -4 11 -10z
m518 -5 c-3 -9 -8 -14 -10 -11 -3 3 -2 9 2 15 9 16 15 13 8 -4z m-1812 -22
c-4 -16 -12 -27 -17 -26 -5 1 -13 -5 -17 -13 -9 -16 -27 -19 -27 -3 0 5 4 8 9
5 5 -3 12 1 15 10 3 8 10 12 16 9 5 -3 10 2 10 13 0 16 8 32 16 32 1 0 -1 -12
-5 -27z m269 15 c0 -6 -3 -8 -7 -5 -8 8 -33 -11 -33 -25 0 -6 7 -5 15 2 9 7
17 11 20 9 2 -3 -5 -10 -16 -17 -16 -10 -20 -10 -25 3 -4 9 1 22 12 30 23 18
34 19 34 3z m838 -8 c-14 -22 -40 -23 -44 -2 -1 7 0 8 3 2 2 -5 9 -10 14 -10
6 0 7 5 3 12 -4 7 -3 8 4 4 7 -4 12 -2 12 3 0 6 5 11 10 11 6 0 5 -8 -2 -20z
m292 9 c0 -5 5 -7 12 -3 7 4 8 3 4 -4 -4 -7 -3 -12 3 -12 5 0 12 5 14 10 3 6
4 5 3 -2 -4 -21 -30 -20 -44 2 -7 12 -8 20 -2 20 5 0 10 -5 10 -11z m320 1 c0
-5 -5 -10 -11 -10 -5 0 -7 5 -4 10 3 6 8 10 11 10 2 0 4 -4 4 -10z m144 -15
c-9 -14 -19 -24 -21 -21 -6 6 20 46 30 46 4 0 0 -11 -9 -25z m-1887 9 c-3 -3
-12 -4 -19 -1 -8 3 -5 6 6 6 11 1 17 -2 13 -5z m194 -21 c-12 -20 -14 -14 -5
12 4 9 9 14 11 11 3 -2 0 -13 -6 -23z m122 14 c3 -8 2 -20 -3 -26 -5 -9 -7 -4
-7 13 0 29 2 32 10 13z m164 7 c-3 -3 -12 -4 -19 -1 -8 3 -5 6 6 6 11 1 17 -2
13 -5z m738 -13 c-3 -6 -14 -10 -23 -10 -15 1 -15 2 1 6 9 2 17 9 17 15 0 6 3
9 6 5 3 -3 3 -10 -1 -16z m510 -10 c-6 -5 -25 10 -25 20 0 5 6 4 14 -3 8 -7
12 -15 11 -17z m123 9 c-7 -10 -14 -18 -15 -16 -6 6 9 36 18 36 5 0 4 -9 -3
-20z m-1923 0 c5 -8 12 -7 23 2 13 11 14 11 7 -1 -6 -11 -4 -13 9 -8 11 4 15
3 11 -4 -4 -6 -13 -8 -21 -5 -7 3 -16 1 -19 -4 -4 -6 -14 -10 -23 -9 -14 0
-14 2 2 8 14 5 16 10 8 15 -7 4 -17 4 -24 0 -7 -4 -8 -3 -4 4 9 15 23 15 31 2z
m291 -16 c-4 -9 -9 -15 -11 -12 -3 3 -3 13 1 22 4 9 9 15 11 12 3 -3 3 -13 -1
-22z m195 10 c9 -11 7 -15 -5 -20 -22 -8 -49 3 -40 17 4 8 -1 9 -17 4 -17 -4
-20 -3 -10 3 19 14 59 12 72 -4z m307 -2 c-10 -2 -18 -8 -18 -13 0 -5 -5 -9
-10 -9 -6 0 -6 7 2 19 7 12 18 17 27 13 14 -6 14 -7 -1 -10z m137 8 c-6 -9 7
-14 27 -11 4 0 12 -8 18 -19 7 -14 7 -20 0 -20 -5 0 -10 8 -10 17 0 9 -3 13
-6 10 -9 -8 -44 11 -44 23 0 6 5 10 11 10 5 0 7 -4 4 -10z m101 1 c-3 -5 1
-12 10 -15 8 -3 12 -10 9 -16 -3 -5 -2 -10 4 -10 5 0 12 5 14 10 3 6 4 5 3 -2
-2 -7 -9 -13 -17 -13 -8 0 -13 6 -11 14 2 9 -3 11 -13 7 -9 -3 -13 -2 -10 4 3
6 0 10 -7 10 -9 0 -9 3 2 10 19 12 23 12 16 1z m378 -6 c3 -9 -3 -19 -14 -25
-14 -7 -20 -7 -20 0 0 5 7 10 16 10 14 0 14 3 4 15 -7 9 -8 15 -2 15 5 0 12
-7 16 -15z m62 6 c-4 -5 -1 -11 6 -13 14 -5 20 -38 6 -38 -6 0 -8 7 -4 15 3 9
0 15 -9 15 -16 0 -20 12 -8 23 9 10 15 8 9 -2z m75 -18 c-12 -20 -14 -14 -5
12 4 9 9 14 11 11 3 -2 0 -13 -6 -23z m46 20 c-4 -3 1 -11 10 -18 13 -9 13
-14 3 -20 -8 -5 -11 -4 -6 3 4 7 -1 10 -14 9 -22 -1 -27 -13 -7 -20 9 -4 9 -6
0 -6 -21 -2 -25 20 -7 40 9 10 19 19 22 19 3 0 2 -3 -1 -7z m168 -3 c-3 -5 -1
-10 4 -10 6 0 11 -5 11 -11 0 -8 -5 -8 -15 1 -13 11 -12 30 1 30 3 0 2 -4 -1
-10z m237 -8 c-7 -2 -10 -8 -7 -13 4 -5 -2 -6 -11 -2 -13 5 -15 3 -9 -7 6 -9
4 -11 -5 -5 -10 6 -10 11 3 20 9 7 14 15 10 19 -4 4 1 4 12 0 11 -5 14 -9 7
-12z m-1242 4 c0 -3 -4 -8 -10 -11 -5 -3 -10 -1 -10 4 0 6 5 11 10 11 6 0 10
-2 10 -4z m-600 -16 c-8 -5 -18 -6 -22 -4 -15 10 -8 -9 10 -23 15 -13 15 -13
-5 -3 -35 16 -30 34 9 37 17 2 19 0 8 -7z m991 -17 c-12 -20 -14 -14 -5 12 4
9 9 14 11 11 3 -2 0 -13 -6 -23z m106 -3 c2 -18 1 -21 -6 -10 -5 8 -7 18 -5
22 3 4 -4 8 -16 8 -12 0 -19 -4 -16 -8 2 -4 0 -14 -5 -22 -8 -13 -8 4 0 38 1
2 11 2 23 0 14 -2 22 -11 25 -28z m57 14 c3 -8 2 -12 -4 -9 -6 3 -10 10 -10
16 0 14 7 11 14 -7z m526 4 c0 -6 -3 -8 -7 -5 -3 4 -17 -3 -30 -15 -13 -12
-23 -19 -23 -15 0 9 42 47 52 47 4 0 8 -5 8 -12z m-1426 -13 c3 -8 1 -15 -4
-15 -6 0 -10 7 -10 15 0 8 2 15 4 15 2 0 6 -7 10 -15z m40 -14 c-2 -3 -12 3
-22 13 -16 17 -16 18 5 5 12 -7 20 -15 17 -18z m466 18 c0 -5 5 -7 12 -3 7 4
8 3 4 -4 -4 -6 -13 -9 -21 -5 -17 6 -20 23 -5 23 6 0 10 -5 10 -11z m-895 -9
c-3 -5 -12 -10 -18 -10 -7 0 -6 4 3 10 19 12 23 12 15 0z m95 -25 c0 -5 -5 -3
-10 5 -5 8 -10 20 -10 25 0 6 5 3 10 -5 5 -8 10 -19 10 -25z m133 -16 c-3 -11
-8 -19 -10 -19 -3 0 -3 9 0 19 3 12 -1 22 -9 25 -8 3 -14 10 -14 16 0 5 8 3
19 -6 11 -10 16 -24 14 -35z m17 41 c8 -5 11 -10 5 -10 -5 0 -17 5 -25 10 -8
5 -10 10 -5 10 6 0 17 -5 25 -10z m100 6 c0 -3 -4 -8 -10 -11 -5 -3 -10 -1
-10 4 0 6 5 11 10 11 6 0 10 -2 10 -4z m140 -6 c-8 -5 -19 -10 -25 -10 -5 0
-3 5 5 10 8 5 20 10 25 10 6 0 3 -5 -5 -10z m90 -25 c0 -5 -5 -3 -10 5 -5 8
-10 20 -10 25 0 6 5 3 10 -5 5 -8 10 -19 10 -25z m43 20 c-3 -9 -8 -14 -10
-11 -3 3 -2 9 2 15 9 16 15 13 8 -4z m97 -23 c0 -1 -9 2 -20 8 -11 6 -20 15
-20 20 0 6 9 2 20 -7 11 -10 20 -19 20 -21z m10 28 c8 -5 11 -10 5 -10 -5 0
-17 5 -25 10 -8 5 -10 10 -5 10 6 0 17 -5 25 -10z m60 6 c0 -3 -4 -8 -10 -11
-5 -3 -10 -1 -10 4 0 6 5 11 10 11 6 0 10 -2 10 -4z m380 -6 c0 -5 -2 -10 -4
-10 -3 0 -8 5 -11 10 -3 6 -1 10 4 10 6 0 11 -4 11 -10z m100 0 c0 -5 -2 -10
-4 -10 -3 0 -8 5 -11 10 -3 6 -1 10 4 10 6 0 11 -4 11 -10z m174 2 c3 -5 -1
-9 -9 -9 -8 0 -15 4 -15 9 0 4 4 8 9 8 6 0 12 -4 15 -8z m71 -3 c11 -16 1 -19
-13 -3 -7 8 -8 14 -3 14 5 0 13 -5 16 -11z m230 1 c3 -5 2 -10 -4 -10 -5 0
-13 5 -16 10 -3 6 -2 10 4 10 5 0 13 -4 16 -10z m140 0 c-3 -5 -12 -10 -18
-10 -7 0 -6 4 3 10 19 12 23 12 15 0z m35 0 c0 -5 -4 -10 -10 -10 -5 0 -10 5
-10 10 0 6 5 10 10 10 6 0 10 -4 10 -10z m75 0 c-3 -5 -12 -10 -18 -10 -7 0
-6 4 3 10 19 12 23 12 15 0z m-1682 -21 c-8 -8 -13 -7 -18 2 -5 8 -4 10 3 5 7
-4 12 -2 12 5 0 7 3 9 7 6 4 -4 2 -12 -4 -18z m438 -2 c-10 -9 -11 -8 -5 6 3
10 9 15 12 12 3 -3 0 -11 -7 -18z m265 5 c-3 -3 0 -12 6 -21 10 -13 10 -14 -2
-4 -16 15 -23 46 -8 37 5 -3 7 -9 4 -12z m98 2 c3 -8 2 -12 -4 -9 -6 3 -10 10
-10 16 0 14 7 11 14 -7z m516 0 c0 -2 -7 -4 -15 -4 -8 0 -15 4 -15 10 0 5 7 7
15 4 8 -4 15 -8 15 -10z m70 6 c0 -5 -5 -10 -11 -10 -5 0 -7 5 -4 10 3 6 8 10
11 10 2 0 4 -4 4 -10z m132 -4 c7 4 8 2 4 -5 -9 -13 -26 -5 -25 12 0 9 2 8 6
-1 2 -6 10 -9 15 -6z m120 0 c7 4 8 2 4 -5 -9 -13 -26 -5 -25 12 0 9 2 8 6 -1
2 -6 10 -9 15 -6z m-1858 -45 c-2 -2 1 -10 8 -18 6 -7 8 -16 4 -20 -3 -3 -6
-1 -6 6 0 7 -4 10 -9 7 -5 -4 -8 2 -7 11 4 28 -15 51 -38 46 -20 -3 -20 -3 -1
6 15 7 24 4 37 -12 9 -12 15 -24 12 -26z m101 40 c3 -5 0 -13 -6 -17 -7 -4 -9
-3 -5 4 3 6 -2 13 -11 15 -16 4 -16 5 -1 6 9 0 19 -3 23 -8z m80 -1 c-3 -5
-12 -10 -18 -10 -7 0 -6 4 3 10 19 12 23 12 15 0z m115 -6 c0 -2 -7 -4 -15 -4
-8 0 -15 4 -15 10 0 5 7 7 15 4 8 -4 15 -8 15 -10z m150 -10 c0 -2 -9 0 -20 6
-11 6 -20 13 -20 16 0 2 9 0 20 -6 11 -6 20 -13 20 -16z m36 -30 c-1 -8 -5
-16 -8 -20 -4 -3 -5 2 -4 13 2 10 -4 29 -12 43 l-14 25 20 -24 c11 -14 19 -30
18 -37z m99 46 c3 -6 -1 -7 -9 -4 -18 7 -21 14 -7 14 6 0 13 -4 16 -10z m122
3 c-4 -3 1 -12 11 -20 15 -13 15 -13 -6 -3 -19 9 -23 30 -5 30 4 0 3 -3 0 -7z
m63 -2 c0 -5 -8 -15 -17 -22 -16 -12 -17 -12 -6 2 7 9 10 19 6 22 -3 4 -1 7 5
7 7 0 12 -4 12 -9z m80 -1 c0 -5 -4 -10 -10 -10 -5 0 -10 5 -10 10 0 6 5 10
10 10 6 0 10 -4 10 -10z m135 1 c3 -6 -5 -15 -17 -21 -21 -10 -21 -10 -6 3 10
8 15 17 11 20 -3 4 -4 7 0 7 3 0 8 -4 12 -9z m83 -16 c-3 -3 -9 2 -12 12 -6
14 -5 15 5 6 7 -7 10 -15 7 -18z m62 15 c0 -5 -4 -10 -10 -10 -5 0 -10 5 -10
10 0 6 5 10 10 10 6 0 10 -4 10 -10z m80 0 c0 -5 -4 -10 -10 -10 -5 0 -10 5
-10 10 0 6 5 10 10 10 6 0 10 -4 10 -10z m85 -18 c5 -13 2 -13 -15 3 -14 13
-20 14 -20 5 0 -7 -3 -11 -6 -7 -3 3 -3 10 0 16 9 13 33 4 41 -17z m115 18 c0
-5 -8 -10 -17 -10 -15 0 -16 2 -3 10 19 12 20 12 20 0z m167 4 c-3 -3 -12 -4
-19 -1 -8 3 -5 6 6 6 11 1 17 -2 13 -5z m128 -4 c-3 -5 -1 -10 6 -10 7 0 10
-3 6 -6 -9 -9 -28 6 -22 17 4 5 8 9 11 9 3 0 2 -4 -1 -10z m-1775 -21 c0 -5
-8 -9 -17 -8 -11 0 -13 3 -5 6 6 2 9 10 6 15 -4 7 -2 8 4 4 7 -4 12 -11 12
-17z m328 9 c-2 -6 -12 -12 -21 -14 -9 -1 -15 2 -11 7 3 5 10 7 15 4 5 -4 9
-1 9 4 0 6 3 11 6 11 3 0 4 -5 2 -12z m69 5 c-4 -3 1 -12 11 -19 15 -12 15
-12 -5 -7 -13 3 -23 9 -23 12 0 9 11 21 18 21 3 0 2 -3 -1 -7z m43 3 c0 -3 -4
-8 -10 -11 -5 -3 -10 -1 -10 4 0 6 5 11 10 11 6 0 10 -2 10 -4z m34 -5 c3 -5
-1 -11 -9 -14 -9 -4 -12 -1 -8 9 6 16 10 17 17 5z m780 -7 c3 -8 2 -12 -4 -9
-6 3 -10 10 -10 16 0 14 7 11 14 -7z m589 2 c4 -10 1 -13 -8 -9 -8 3 -12 9 -9
14 7 12 11 11 17 -5z m-1714 -7 c-17 -11 -39 -12 -39 -1 0 4 12 8 27 9 19 1
22 -1 12 -8z m136 1 c-3 -5 -12 -10 -18 -10 -7 0 -6 4 3 10 19 12 23 12 15 0z
m325 6 c0 -3 -4 -8 -10 -11 -5 -3 -10 -1 -10 4 0 6 5 11 10 11 6 0 10 -2 10
-4z m99 -19 c0 -9 -2 -8 -6 1 -2 6 -10 9 -15 6 -7 -4 -8 -2 -4 5 9 13 26 5 25
-12z m208 8 c5 -4 2 -4 -6 0 -11 6 -13 4 -8 -8 4 -11 2 -14 -8 -10 -8 3 -13 9
-10 13 3 5 -1 11 -7 14 -7 2 -3 4 9 2 12 -1 26 -6 30 -11z m65 8 c-6 -2 -10
-8 -7 -13 3 -4 -2 -11 -10 -14 -13 -4 -14 -2 -5 14 6 11 16 20 23 19 9 0 9 -2
-1 -6z m273 -13 c17 -18 17 -20 2 -14 -9 3 -17 10 -17 16 0 5 -5 6 -12 2 -7
-4 -8 -3 -4 4 9 16 10 15 31 -8z m78 6 c3 -8 0 -17 -7 -19 -10 -4 -12 1 -9 14
6 23 9 24 16 5z m247 5 c0 -5 -10 -11 -22 -14 -22 -6 -22 -6 -4 8 23 17 26 18
26 6z m86 -3 c-9 -5 -23 -5 -32 0 -12 6 -7 9 16 9 23 0 28 -3 16 -9z m69 2 c3
-5 1 -10 -4 -10 -6 0 -11 5 -11 10 0 6 2 10 4 10 3 0 8 -4 11 -10z m28 -5 c-3
-9 -8 -14 -10 -11 -3 3 -2 9 2 15 9 16 15 13 8 -4z m-303 1 c0 -2 -9 -6 -20
-9 -11 -3 -18 -1 -14 4 5 9 34 13 34 5z m480 0 c0 -2 -9 -6 -20 -9 -11 -3 -18
-1 -14 4 5 9 34 13 34 5z m-1583 -21 c0 -8 -4 -12 -9 -9 -5 3 -6 10 -3 15 9
13 12 11 12 -6z m26 -2 c-4 -10 -2 -14 4 -10 5 3 10 -1 10 -9 0 -13 -2 -13
-15 0 -8 8 -11 19 -8 25 11 17 16 13 9 -6z m1037 -18 c0 -5 -5 -3 -10 5 -5 8
-10 20 -10 25 0 6 5 3 10 -5 5 -8 10 -19 10 -25z m74 23 c-5 -7 -2 -9 8 -5 17
6 19 -16 3 -30 -4 -5 -5 -2 0 6 6 11 4 13 -7 8 -11 -4 -15 -1 -13 11 5 23 4
22 11 22 3 0 2 -5 -2 -12z m120 0 c-5 -8 -1 -9 12 -5 18 7 18 6 2 -6 -14 -11
-15 -16 -5 -27 10 -12 9 -12 -5 -1 -9 7 -23 10 -30 6 -7 -4 -4 1 6 9 11 9 16
16 12 16 -4 0 -4 5 -1 10 3 6 8 10 11 10 3 0 2 -5 -2 -12z m81 3 c3 -6 -3 -14
-13 -20 -14 -7 -19 -6 -19 4 0 7 7 11 15 7 10 -3 13 -1 8 6 -4 7 -5 12 -2 12
3 0 7 -4 11 -9z m-1378 -20 c0 -11 -5 -17 -10 -14 -4 2 -15 -1 -24 -9 -15 -12
-15 -11 -3 9 8 12 18 19 22 17 4 -3 8 0 8 5 0 6 2 11 4 11 3 0 4 -9 3 -19z
m541 -6 c-3 -3 -9 2 -12 12 -6 14 -5 15 5 6 7 -7 10 -15 7 -18z m155 10 c-3
-9 -8 -14 -10 -11 -3 3 -2 9 2 15 9 16 15 13 8 -4z m97 11 c0 -2 -7 -7 -16
-10 -8 -3 -12 -2 -9 4 6 10 25 14 25 6z m108 -21 c-3 -3 -9 2 -12 12 -6 14 -5
15 5 6 7 -7 10 -15 7 -18z m-1184 -1 c3 -8 2 -12 -4 -9 -6 3 -10 10 -10 16 0
14 7 11 14 -7z m218 5 c2 -2 1 -3 -1 -2 -2 2 -9 -2 -16 -7 -8 -7 -12 -5 -12 4
0 12 22 16 29 5z m208 3 c0 -5 -7 -9 -15 -9 -8 0 -12 4 -9 9 3 4 9 8 15 8 5 0
9 -4 9 -8z m70 3 c0 -2 -6 -8 -13 -14 -10 -8 -14 -7 -14 2 0 8 6 14 14 14 7 0
13 -1 13 -2z m112 -27 c-8 -8 -9 -4 -5 13 4 13 8 18 11 10 2 -7 -1 -18 -6 -23z
m298 24 c0 -5 -7 -9 -15 -9 -8 0 -12 4 -9 9 3 4 9 8 15 8 5 0 9 -4 9 -8z m220
-4 c0 -6 -3 -8 -7 -5 -3 4 -13 1 -22 -6 -14 -11 -14 -10 -2 6 15 20 31 22 31
5z m145 2 c3 -6 -1 -7 -9 -4 -18 7 -21 14 -7 14 6 0 13 -4 16 -10z m60 1 c-3
-2 -16 -6 -28 -8 -15 -2 -18 0 -9 5 14 9 45 12 37 3z m-1224 -18 c13 -16 12
-17 -3 -4 -10 7 -18 15 -18 17 0 8 8 3 21 -13z m924 -1 c-3 -3 -11 0 -18 7 -9
10 -8 11 6 5 10 -3 15 -9 12 -12z m715 14 c0 -2 -8 -10 -17 -17 -16 -13 -17
-12 -4 4 13 16 21 21 21 13z m-1595 -16 c-3 -5 -12 -10 -18 -10 -7 0 -6 4 3
10 19 12 23 12 15 0z m550 2 c-3 -3 2 -14 12 -24 24 -27 10 -22 -15 5 -17 18
-19 24 -7 24 8 0 13 -3 10 -5z m47 1 c-6 -3 -9 -10 -5 -16 4 -7 -1 -6 -10 2
-21 17 -21 17 6 18 12 0 16 -1 9 -4z m193 -11 c-3 -3 -11 0 -18 7 -9 10 -8 11
6 5 10 -3 15 -9 12 -12z m135 13 c0 -1 -10 -10 -22 -21 -14 -12 -18 -13 -10
-3 6 9 10 18 7 21 -3 2 2 5 10 5 8 0 15 -1 15 -2z m145 -3 c-3 -3 0 -11 6 -19
17 -20 5 -16 -14 5 -15 16 -15 19 -2 19 8 0 13 -3 10 -5z m-815 -5 c0 -2 -10
-12 -22 -23 l-23 -19 19 23 c18 21 26 27 26 19z m44 -16 c14 -15 15 -21 4 -27
-7 -4 -10 -3 -5 1 4 5 0 17 -10 27 -9 10 -14 18 -11 18 3 0 13 -9 22 -19z
m136 16 c0 -2 -8 -11 -18 -20 -15 -14 -19 -15 -19 -2 0 8 4 12 8 9 4 -2 10 0
14 6 6 10 15 14 15 7z m244 -18 c-10 -12 -18 -24 -17 -28 1 -3 0 -8 -2 -9 -2
-2 -3 3 -1 11 2 16 25 47 34 47 3 0 -3 -9 -14 -21z m470 -8 c-2 -3 -12 3 -22
13 -16 17 -16 18 5 5 12 -7 20 -15 17 -18z m103 16 c0 -8 -6 -14 -14 -14 -9 0
-10 4 -2 14 6 7 12 13 14 13 1 0 2 -6 2 -13z m42 0 c8 -10 7 -14 -2 -14 -8 0
-14 6 -14 14 0 7 1 13 2 13 2 0 8 -6 14 -13z m441 9 c0 -2 -8 -10 -17 -17 -16
-13 -17 -12 -4 4 13 16 21 21 21 13z m-1903 -23 c0 -9 -4 -10 -14 -2 -7 6 -13
12 -13 14 0 1 6 2 13 2 8 0 14 -6 14 -14z m119 5 c3 -4 -1 -5 -10 -4 -8 1 -18
5 -22 8 -3 4 1 5 10 4 8 -1 18 -5 22 -8z m84 8 c0 -3 -4 -8 -10 -11 -5 -3 -10
-1 -10 4 0 6 5 11 10 11 6 0 10 -2 10 -4z m95 -5 c-9 -8 -36 -10 -30 -2 2 4
11 8 20 8 8 0 13 -3 10 -6z m382 -10 c0 -11 -5 -18 -9 -15 -4 3 -5 11 -1 19 7
21 12 19 10 -4z m113 15 c0 -2 -8 -10 -17 -17 -16 -13 -17 -12 -4 4 13 16 21
21 21 13z m206 -32 c1 -9 -1 -13 -4 -9 -4 4 -7 10 -7 13 0 4 -4 14 -9 22 -7
12 -6 13 4 3 8 -7 15 -20 16 -29z m114 32 c0 -2 -8 -10 -17 -17 -16 -13 -17
-12 -4 4 13 16 21 21 21 13z m104 -12 c3 -8 2 -12 -4 -9 -6 3 -10 10 -10 16 0
14 7 11 14 -7z m137 -11 c-12 -20 -14 -14 -5 12 4 9 9 14 11 11 3 -2 0 -13 -6
-23z m-73 -8 c-3 -3 -9 2 -12 12 -6 14 -5 15 5 6 7 -7 10 -15 7 -18z m281 12
c8 -10 7 -14 -2 -14 -8 0 -14 6 -14 14 0 7 1 13 2 13 2 0 8 -6 14 -13z m-1195
-9 c-3 -4 -9 -8 -15 -8 -5 0 -9 4 -9 8 0 5 7 9 15 9 8 0 12 -4 9 -9z m156 0
c0 -4 -4 -8 -9 -8 -6 0 -12 4 -15 8 -3 5 1 9 9 9 8 0 15 -4 15 -9z m1235 -6
c-3 -3 -11 0 -18 7 -9 10 -8 11 6 5 10 -3 15 -9 12 -12z m-1459 -7 c-1 -8 -5
-17 -8 -21 -5 -4 -4 16 1 34 3 9 9 -1 7 -13z m959 6 c3 -5 2 -12 -3 -15 -5 -3
-9 1 -9 9 0 17 3 19 12 6z m-685 -7 c0 -8 -19 -13 -24 -6 -3 5 1 9 9 9 8 0 15
-2 15 -3z m160 2 c0 -2 -8 -10 -17 -17 -16 -13 -17 -12 -4 4 13 16 21 21 21
13z m364 -4 c3 -5 -1 -9 -9 -9 -8 0 -12 4 -9 9 3 4 7 8 9 8 2 0 6 -4 9 -8z
m286 4 c0 -3 -4 -8 -10 -11 -5 -3 -10 -1 -10 4 0 6 5 11 10 11 6 0 10 -2 10
-4z m120 -6 c0 -5 -2 -10 -4 -10 -3 0 -8 5 -11 10 -3 6 -1 10 4 10 6 0 11 -4
11 -10z m297 -5 c0 -8 -4 -12 -9 -9 -5 3 -6 10 -3 15 9 13 12 11 12 -6z m43
11 c0 -2 -7 -7 -16 -10 -8 -3 -12 -2 -9 4 6 10 25 14 25 6z m-1435 -26 c-3 -5
-12 -10 -18 -10 -7 0 -6 4 3 10 19 12 23 12 15 0z m-327 -25 c-3 -3 -9 2 -12
12 -6 14 -5 15 5 6 7 -7 10 -15 7 -18z m720 0 c-3 -3 -9 2 -12 12 -6 14 -5 15
5 6 7 -7 10 -15 7 -18z m323 8 c13 -16 12 -17 -3 -4 -10 7 -18 15 -18 17 0 8
8 3 21 -13z m36 2 c0 -8 -4 -12 -9 -9 -5 3 -6 10 -3 15 9 13 12 11 12 -6z
m478 6 c3 -5 2 -12 -3 -15 -5 -3 -9 1 -9 9 0 17 3 19 12 6z m45 5 c0 -2 -8
-10 -17 -17 -16 -13 -17 -12 -4 4 13 16 21 21 21 13z m-1427 -21 c4 -8 3 -16
-1 -19 -4 -3 -9 4 -9 15 -2 23 3 25 10 4z m467 5 c0 -5 -5 -10 -11 -10 -5 0
-7 5 -4 10 3 6 8 10 11 10 2 0 4 -4 4 -10z m830 4 c0 -8 -19 -13 -24 -6 -3 5
1 9 9 9 8 0 15 -2 15 -3z m210 2 c0 -3 -4 -8 -10 -11 -5 -3 -10 -1 -10 4 0 6
5 11 10 11 6 0 10 -2 10 -4z m-383 -21 c0 -8 -4 -12 -9 -9 -5 3 -6 10 -3 15 9
13 12 11 12 -6z m-1201 -7 c3 -4 -1 -5 -10 -4 -8 1 -18 5 -22 8 -3 4 1 5 10 4
8 -1 18 -5 22 -8z m124 2 c0 -5 -2 -10 -4 -10 -3 0 -8 5 -11 10 -3 6 -1 10 4
10 6 0 11 -4 11 -10z m360 6 c0 -3 -4 -8 -10 -11 -5 -3 -10 -1 -10 4 0 6 5 11
10 11 6 0 10 -2 10 -4z m280 0 c0 -3 -4 -8 -10 -11 -5 -3 -10 -1 -10 4 0 6 5
11 10 11 6 0 10 -2 10 -4z m75 -6 c3 -5 1 -10 -4 -10 -6 0 -11 5 -11 10 0 6 2
10 4 10 3 0 8 -4 11 -10z m241 -2 c3 -4 -1 -5 -10 -4 -8 1 -18 5 -22 8 -3 4 1
5 10 4 8 -1 18 -5 22 -8z m244 2 c0 -5 -2 -10 -4 -10 -3 0 -8 5 -11 10 -3 6
-1 10 4 10 6 0 11 -4 11 -10z m-1426 -30 c-6 -6 -10 -3 -10 10 0 13 4 16 10
10 7 -7 7 -13 0 -20z m61 2 c-3 -3 -11 0 -18 7 -9 10 -8 11 6 5 10 -3 15 -9
12 -12z m705 -12 c0 -5 -5 -10 -11 -10 -5 0 -7 5 -4 10 3 6 8 10 11 10 2 0 4
-4 4 -10z m75 1 c3 -5 2 -12 -3 -15 -5 -3 -9 1 -9 9 0 17 3 19 12 6z m42 -6
c0 -8 -4 -12 -9 -9 -5 3 -6 10 -3 15 9 13 12 11 12 -6z m283 -10 c14 -19 14
-19 -2 -6 -10 7 -18 18 -18 24 0 6 1 8 3 6 1 -2 9 -13 17 -24z"/>
<path d="M2496 1668 c3 -5 10 -6 15 -3 13 9 11 12 -6 12 -8 0 -12 -4 -9 -9z"/>
<path d="M2566 1634 c-3 -8 -9 -13 -14 -10 -4 2 -9 -4 -9 -16 -2 -19 -1 -19
18 3 10 12 19 26 19 31 0 13 -7 9 -14 -8z"/>
<path d="M2438 1633 c10 -4 9 -10 -5 -27 l-18 -21 22 19 c23 19 22 37 0 35 -8
0 -8 -2 1 -6z"/>
<path d="M2595 1681 c-3 -5 -2 -12 3 -15 5 -3 9 1 9 9 0 17 -3 19 -12 6z"/>
<path d="M2853 1658 c-12 -6 -25 -18 -28 -27 -5 -12 -3 -13 6 -4 13 13 42 6
33 -8 -3 -5 -11 -6 -17 -3 -7 4 -8 3 -4 -2 5 -5 10 -7 11 -4 2 3 11 -1 20 -9
9 -8 16 -10 15 -5 -4 22 2 35 14 29 6 -4 2 2 -10 13 -12 11 -19 22 -16 26 9 8
2 7 -24 -6z m27 -18 c8 -5 11 -10 5 -10 -5 0 -17 5 -25 10 -8 5 -10 10 -5 10
6 0 17 -5 25 -10z"/>
<path d="M2655 1652 c-3 -4 -11 -8 -16 -8 -5 -1 -15 -2 -21 -3 -8 -1 -6 -6 5
-12 10 -6 14 -16 10 -22 -3 -7 2 -5 13 4 23 20 45 14 37 -9 -3 -10 -2 -13 4
-6 4 6 21 10 36 9 15 -1 30 3 34 8 3 6 1 7 -5 3 -6 -3 -13 -2 -17 4 -4 6 -10
8 -15 5 -5 -3 -11 -1 -15 5 -10 16 -42 30 -50 22z m51 -34 c4 -6 -3 -4 -16 5
-17 11 -27 13 -36 6 -8 -7 -15 -6 -20 2 -4 7 -3 9 4 5 6 -3 13 -2 17 4 7 11
39 -2 51 -22z"/>
<path d="M2978 1609 c6 -9 8 -20 4 -25 -4 -5 -3 -6 2 -2 5 4 15 3 22 -3 9 -7
14 -6 20 3 4 7 3 10 -1 5 -5 -4 -20 3 -34 15 -14 13 -20 16 -13 7z"/>
<path d="M2905 1350 c-3 -5 3 -10 15 -10 12 0 18 5 15 10 -3 6 -10 10 -15 10
-5 0 -12 -4 -15 -10z"/>
<path d="M2674 1809 c-4 -7 -3 -9 4 -5 5 3 12 0 15 -6 2 -7 7 -10 11 -7 4 3 0
12 -8 18 -11 9 -16 9 -22 0z"/>
<path d="M4295 1799 c-4 -6 -5 -12 -2 -15 2 -3 7 2 10 11 7 17 1 20 -8 4z"/>
<path d="M4500 1800 c0 -5 5 -10 10 -10 6 0 10 5 10 10 0 6 -4 10 -10 10 -5 0
-10 -4 -10 -10z"/>
<path d="M2530 1782 c0 -6 6 -12 13 -15 6 -2 9 -8 5 -12 -4 -4 -13 -3 -21 3
-8 7 -18 7 -27 2 -8 -6 -10 -10 -5 -11 6 0 20 -2 31 -4 12 -3 31 4 43 14 24
21 29 40 6 21 -12 -10 -18 -10 -30 0 -9 8 -15 8 -15 2z"/>
<path d="M2672 1776 c7 -8 15 -12 17 -11 5 6 -10 25 -20 25 -5 0 -4 -6 3 -14z"/>
<path d="M4425 1770 c10 -11 13 -20 8 -20 -6 0 -16 7 -23 15 -7 9 -15 13 -17
11 -3 -2 4 -13 15 -24 14 -14 23 -17 30 -10 14 14 52 16 77 5 l20 -10 -20 20
c-14 14 -23 17 -28 9 -6 -8 -10 -7 -14 2 -2 6 -9 12 -14 12 -6 0 -7 -4 -4 -10
3 -5 1 -10 -5 -10 -6 0 -13 7 -16 15 -4 8 -11 15 -17 15 -5 0 -2 -9 8 -20z"/>
<path d="M2785 1593 c-4 -10 -9 -26 -10 -35 -1 -10 -5 -21 -9 -25 -9 -10 -42
12 -38 26 1 6 -2 11 -8 11 -14 0 -13 -13 2 -28 7 -7 8 -12 2 -12 -6 0 -11 -7
-11 -14 0 -10 5 -12 16 -7 9 5 24 7 34 6 15 -3 22 7 18 28 -1 5 3 6 9 2 6 -3
7 0 4 9 -3 9 -1 16 6 16 6 0 9 -4 5 -9 -3 -5 -1 -12 4 -16 6 -3 8 -12 5 -20
-5 -12 1 -14 25 -11 17 2 28 -1 25 -5 -3 -5 2 -6 11 -2 13 5 14 7 3 14 -9 6
-9 9 -1 9 26 0 22 -20 -8 -35 -17 -9 -29 -13 -26 -8 3 5 -4 10 -15 10 -19 2
-19 1 -2 -18 12 -13 20 -16 25 -8 5 8 8 8 13 0 4 -6 12 -9 17 -5 5 3 7 9 4 14
-3 4 2 10 10 14 17 6 29 -9 19 -25 -4 -7 -1 -10 6 -7 7 2 14 12 16 21 1 9 -1
15 -5 13 -4 -3 -6 9 -5 25 2 25 0 28 -12 18 -11 -9 -18 -9 -29 1 -12 10 -15
10 -15 0 0 -8 -3 -10 -6 -7 -4 3 -15 2 -26 -4 -19 -10 -19 -9 -3 21 9 18 12
29 6 26 -6 -4 -16 2 -23 14 -16 25 -24 25 -33 3z m33 -15 c7 -7 12 -16 12 -22
0 -5 -6 -2 -13 9 -9 11 -19 15 -27 10 -9 -5 -11 -4 -6 3 9 15 19 15 34 0z"/>
<path d="M4206 1578 c-21 -20 -32 -25 -41 -18 -9 7 -16 6 -25 -5 -7 -8 -22
-13 -34 -11 -11 2 -30 -3 -42 -11 -18 -11 -23 -11 -33 0 -6 8 -9 17 -6 20 3 4
2 5 -1 2 -4 -2 -14 0 -23 4 -11 6 -23 4 -35 -5 -22 -15 -51 -1 -39 20 3 6 -6
0 -20 -13 -15 -14 -30 -21 -34 -18 -3 4 -12 2 -20 -5 -22 -18 -49 13 -34 40 9
17 8 19 -9 15 -11 -3 -20 -10 -20 -15 0 -5 4 -6 10 -3 6 3 7 -1 3 -10 -4 -13
-8 -14 -14 -4 -14 24 -39 19 -37 -7 1 -13 6 -24 11 -24 5 0 7 7 4 15 -4 8 -1
17 6 21 7 4 9 4 5 -1 -4 -4 0 -14 10 -22 9 -8 11 -12 5 -8 -18 9 -16 0 4 -16
14 -12 16 -12 8 0 -6 10 -4 12 5 6 10 -6 9 -12 -8 -25 -16 -14 -18 -20 -9 -30
9 -10 9 -11 -2 -5 -11 6 -13 4 -7 -11 6 -15 3 -14 -18 5 -15 14 -26 27 -26 30
0 3 5 0 12 -7 20 -20 32 -13 13 8 -10 11 -21 17 -26 15 -4 -3 -11 0 -15 6 -5
8 -3 9 7 4 11 -6 12 -5 2 5 -7 8 -16 11 -20 7 -4 -4 -1 -13 5 -19 15 -15 16
-32 2 -23 -5 3 -10 1 -10 -5 0 -6 8 -10 18 -8 12 2 16 -3 15 -18 -2 -17 3 -21
23 -21 14 0 29 8 35 18 5 11 7 19 3 19 -3 0 -1 7 6 15 9 11 16 12 25 5 6 -5
16 -6 20 -2 5 4 1 -6 -9 -21 -14 -23 -15 -31 -5 -43 9 -11 14 -12 20 -3 9 15
50 18 67 6 8 -7 19 -4 32 8 16 14 23 16 32 7 14 -14 28 -16 28 -3 0 5 -9 11
-21 14 -11 3 -23 15 -26 26 -3 12 -9 21 -13 21 -9 0 -8 -33 1 -40 4 -3 0 -12
-9 -20 -14 -13 -15 -12 -9 2 4 12 1 16 -14 15 -10 -1 -19 -6 -19 -11 0 -6 -5
-5 -12 2 -15 15 -31 16 -22 0 4 -7 3 -8 -4 -4 -11 7 -7 31 10 53 7 8 3 11 -11
10 -12 -1 -21 -5 -21 -10 0 -4 -4 -5 -10 -2 -5 3 -10 11 -10 16 0 6 5 7 10 4
6 -3 10 0 10 7 0 9 3 9 10 -2 8 -12 10 -12 10 -1 0 10 3 11 14 2 11 -9 15 -9
18 0 2 7 12 13 22 15 13 2 14 -1 7 -10 -6 -7 -8 -16 -4 -19 9 -9 23 -9 22 1
-4 23 3 34 17 28 8 -3 13 -2 10 2 -2 4 5 9 17 9 20 2 20 1 5 -8 -25 -14 -23
-33 1 -19 27 14 33 13 27 -7 -3 -10 -1 -25 4 -33 8 -12 10 -12 10 -1 0 11 3
11 17 0 11 -10 14 -10 9 -1 -8 13 19 13 42 -2 8 -5 21 -1 33 10 22 20 17 33
-6 14 -11 -9 -18 -10 -29 -1 -11 9 -15 9 -18 0 -2 -7 -8 -6 -16 4 -10 12 -10
17 -1 23 8 4 9 3 5 -4 -4 -7 -2 -12 4 -12 7 0 10 7 6 18 -5 14 -4 14 9 -2 9
-12 15 -15 15 -7 0 11 3 11 15 1 12 -10 15 -10 15 0 0 8 3 10 7 7 3 -4 13 -2
20 5 31 25 49 17 49 -24 0 -21 -3 -34 -6 -27 -6 8 -9 7 -13 -2 -4 -10 -6 -9
-6 3 -1 25 -17 30 -32 11 -12 -15 -12 -16 6 -10 19 7 19 6 1 -7 -10 -8 -15
-20 -11 -28 3 -7 0 -6 -7 3 -13 16 -16 15 -47 -1 -21 -10 -30 -20 -22 -24 6
-4 11 -2 11 5 0 9 3 9 14 0 10 -9 16 -9 21 -1 4 6 16 8 26 5 16 -5 20 -3 17
12 -2 14 3 18 27 18 32 0 55 11 55 26 0 5 -5 8 -12 7 -15 -4 -17 32 -3 51 7
11 7 13 -2 8 -25 -15 -22 12 3 30 15 11 20 19 13 19 -8 0 -27 -13 -43 -28z
m-280 -30 c4 -7 4 -10 -1 -6 -4 4 -15 2 -24 -5 -14 -11 -14 -10 -2 6 16 20 18
21 27 5z m232 -4 c-1 -5 -9 -9 -16 -10 -10 -2 -11 1 -1 12 12 14 24 13 17 -2z
m-337 -11 c13 -16 12 -17 -3 -4 -10 7 -18 15 -18 17 0 8 8 3 21 -13z m233 -31
c3 -5 -1 -9 -9 -9 -8 0 -15 4 -15 9 0 4 4 8 9 8 6 0 12 -4 15 -8z"/>
<path d="M3085 1581 c-3 -6 -10 -9 -15 -6 -4 3 -7 -3 -6 -12 0 -10 -3 -18 -9
-18 -5 0 -20 -6 -32 -13 -19 -10 -24 -9 -44 16 -12 15 -19 19 -16 10 3 -9 0
-21 -7 -27 -18 -15 -13 -56 7 -56 8 0 19 -4 23 -8 15 -14 24 -6 14 12 -13 26
-13 28 6 35 9 4 13 2 8 -5 -4 -7 -1 -10 7 -7 8 3 13 11 11 17 -1 7 2 9 9 5 8
-5 9 -3 4 5 -6 10 -3 11 15 1 13 -7 20 -8 16 -2 -3 6 -2 13 4 17 6 4 7 12 4
18 -4 7 -3 8 1 4 12 -10 15 -38 4 -32 -5 4 -6 -1 -3 -9 3 -8 16 -13 29 -12 16
2 22 -1 18 -10 -6 -15 -23 -19 -23 -6 0 4 -9 8 -21 9 -18 2 -19 0 -7 -14 9
-12 10 -15 1 -9 -7 4 -13 2 -13 -3 0 -14 17 -14 25 -1 4 7 13 7 26 0 18 -10
23 -7 20 15 -1 6 5 2 13 -8 12 -16 14 -16 20 -2 3 9 2 14 -2 11 -5 -3 -8 4 -8
16 1 15 -6 22 -21 23 -12 1 -20 -2 -17 -7 3 -4 0 -8 -5 -8 -11 0 -12 4 -15 39
-1 25 -12 36 -21 22z m-100 -75 c1 -13 -5 -23 -12 -23 -6 0 -9 5 -6 10 3 5 -1
14 -8 19 -11 7 -9 8 5 4 14 -5 17 -2 12 11 -4 10 -3 14 1 9 4 -4 8 -18 8 -30z"/>
<path d="M2454 1572 c4 -7 2 -20 -6 -29 -7 -9 -13 -19 -13 -22 0 -3 -3 -5 -6
-4 -4 1 -4 -24 0 -46 1 -2 9 3 19 12 10 10 22 14 27 10 4 -5 2 2 -4 15 -12 22
-11 23 9 12 18 -10 21 -9 15 1 -6 8 -4 10 5 4 8 -5 11 -4 7 2 -4 6 4 9 18 7
16 -1 23 2 19 8 -5 7 -2 8 6 3 9 -6 11 -4 5 6 -5 8 1 5 13 -5 14 -12 22 -14
22 -7 0 7 5 9 11 5 8 -4 7 -9 -2 -15 -7 -4 -17 -5 -21 -3 -4 3 -8 -1 -8 -8 0
-10 -2 -10 -9 1 -7 11 -9 11 -14 0 -4 -9 -6 -10 -6 -2 -1 7 -8 10 -16 7 -8 -4
-13 -10 -10 -15 3 -4 -3 -6 -14 -4 -14 2 -18 -1 -15 -10 3 -7 14 -12 25 -10
11 2 17 0 14 -5 -3 -5 -14 -7 -25 -5 -12 2 -19 1 -16 -3 2 -4 -2 -16 -10 -27
-8 -10 -14 -14 -14 -8 0 7 4 14 10 18 5 3 7 12 4 20 -4 8 -10 12 -15 9 -5 -3
-7 -10 -3 -15 3 -5 1 -16 -6 -24 -21 -26 12 -30 34 -4 12 13 28 24 36 24 9 0
14 8 13 22 -2 21 10 25 35 10 7 -5 10 -12 8 -16 -3 -4 5 -7 17 -6 12 1 27 0
32 -4 19 -10 44 -11 50 0 4 6 16 0 30 -16 29 -31 40 -32 42 -3 2 18 0 20 -7 8
-5 -8 -10 -10 -10 -4 0 18 12 25 25 14 9 -8 13 -4 13 13 0 13 -6 24 -14 24 -7
0 -11 -4 -9 -7 3 -4 -6 -7 -20 -7 -21 0 -24 3 -20 26 2 14 0 33 -5 41 -7 11
-10 11 -10 2 0 -7 -6 -12 -12 -10 -7 1 -23 -3 -35 -10 -20 -11 -24 -9 -39 13
-13 20 -19 23 -30 14 -8 -6 -14 -9 -14 -5 0 4 -11 -1 -24 -10 -34 -22 -31 -22
-62 6 -15 14 -24 19 -20 12z m36 -37 c0 -2 -9 -3 -19 -2 -11 0 -18 5 -15 9 4
6 34 0 34 -7z m196 -6 c10 -11 14 -20 9 -19 -23 5 -26 -1 -8 -17 10 -10 13
-14 5 -9 -9 7 -16 5 -22 -4 -5 -8 -12 -11 -17 -7 -4 5 -1 12 7 18 11 7 8 8
-12 5 -15 -3 -31 -7 -35 -9 -5 -3 -17 1 -28 9 -19 14 -11 19 24 15 7 -2 10 2
7 7 -7 11 19 10 30 -1 13 -13 27 -7 15 6 -6 8 -8 17 -4 20 9 9 7 10 29 -14z"/>
<path d="M2626 1512 c-3 -5 1 -9 9 -9 8 0 12 4 9 9 -3 4 -7 8 -9 8 -2 0 -6 -4
-9 -8z"/>
<path d="M4294 1565 c-3 -7 -4 -18 -2 -26 2 -8 -4 -13 -14 -13 -10 1 -18 -3
-18 -10 0 -7 -4 -6 -9 2 -7 11 -9 11 -14 -1 -4 -11 0 -15 12 -12 12 2 22 -5
29 -19 8 -17 7 -23 -3 -23 -8 0 -11 7 -7 16 5 14 4 14 -10 1 -22 -21 -4 -44
23 -29 11 5 24 7 29 4 5 -3 7 6 4 19 -3 16 0 24 8 22 26 -3 36 -17 33 -41 -1
-14 1 -28 5 -30 11 -7 21 38 10 49 -4 4 -6 16 -3 25 4 9 3 13 -2 9 -4 -4 -14
-3 -22 3 -7 6 -13 7 -13 2 0 -5 -11 -9 -25 -9 -13 0 -22 2 -19 6 5 5 10 6 36
9 7 0 3 8 -8 17 -10 8 -12 12 -4 8 12 -6 13 -5 3 7 -10 13 -10 16 2 16 7 0 14
-3 13 -6 -2 -20 3 -31 12 -26 5 3 6 13 3 23 -3 9 -3 14 1 10 4 -3 8 -12 10
-20 3 -22 17 -39 27 -33 5 4 6 -2 2 -12 -6 -16 -5 -17 11 -3 21 16 49 23 40 9
-3 -5 -9 -7 -13 -4 -5 2 -16 -4 -26 -15 -19 -21 -8 -29 12 -9 8 8 13 8 17 0 9
-14 26 -14 26 0 0 5 -4 7 -10 4 -5 -3 -10 -2 -10 4 0 5 5 13 10 16 15 9 12 28
-3 22 -8 -3 -14 1 -14 8 0 8 7 11 15 7 10 -3 13 -1 8 6 -3 6 -1 14 6 18 7 4
10 4 6 -1 -4 -4 -2 -15 5 -23 10 -13 9 -14 -3 -7 -13 8 -13 7 0 -14 15 -23 38
-28 31 -7 -2 6 -5 18 -6 26 -2 8 -4 17 -5 20 -1 3 -2 8 -1 12 1 9 -38 1 -53
-11 -9 -7 -17 -7 -26 2 -8 6 -6 2 3 -10 14 -16 15 -23 6 -29 -8 -4 -22 4 -37
22 -26 29 -70 40 -78 19z m190 -51 c3 -8 2 -12 -4 -9 -6 3 -10 10 -10 16 0 14
7 11 14 -7z"/>
<path d="M3315 1558 c1 -7 -9 -26 -24 -42 -14 -16 -20 -26 -13 -22 9 6 11 -1
7 -26 -4 -28 -3 -30 7 -17 7 9 18 14 24 12 6 -2 17 3 24 12 8 9 8 15 2 15 -6
0 -14 -5 -17 -10 -4 -6 -11 -8 -16 -4 -15 9 10 34 27 27 10 -4 12 0 8 10 -3
10 -12 13 -22 9 -15 -5 -15 -4 1 12 9 9 17 23 17 29 0 8 -3 7 -9 -2 -6 -9 -10
-10 -14 -2 -3 7 -4 7 -2 -1z"/>
<path d="M3348 1552 c-6 -23 7 -50 19 -39 4 5 1 12 -7 17 -8 6 -10 10 -5 11 6
0 18 2 28 4 15 3 16 1 6 -11 -6 -8 -9 -17 -6 -20 3 -3 12 3 19 15 14 23 30 28
26 9 -2 -8 21 -12 79 -13 46 -1 78 2 72 6 -7 4 -5 9 6 12 9 4 14 3 11 -1 -3
-4 4 -14 16 -21 11 -7 17 -8 14 -2 -5 7 0 9 11 5 14 -4 15 -3 4 4 -8 6 -9 12
-3 16 5 3 13 -1 16 -10 9 -22 8 -24 -9 -24 -8 0 -15 -5 -15 -11 0 -5 5 -7 12
-3 7 4 8 3 4 -4 -5 -9 -15 -8 -36 3 -36 19 -37 19 -37 0 0 -9 6 -14 13 -11 23
9 24 -11 1 -30 -16 -15 -19 -15 -9 -2 12 15 11 17 -7 15 -38 -3 -15 -32 26
-35 17 0 22 4 20 21 -1 12 4 22 11 23 6 1 16 2 21 3 5 0 24 15 41 32 l31 32
30 -29 c16 -15 29 -22 29 -15 0 7 5 9 13 5 9 -5 9 -3 -1 7 -7 8 -20 14 -30 14
-9 0 -16 6 -14 13 1 6 -3 12 -9 12 -5 0 -7 5 -4 10 11 17 -7 11 -21 -7 -12
-15 -13 -16 -8 -2 4 13 -1 17 -20 15 -14 0 -26 -4 -26 -7 0 -3 -20 -5 -45 -4
-25 1 -45 -2 -45 -7 0 -4 -5 -8 -11 -8 -5 0 -8 4 -5 8 2 4 -4 8 -14 8 -10 0
-16 -4 -14 -8 8 -12 -11 -9 -24 4 -9 9 -12 9 -12 0 0 -7 -5 -12 -11 -12 -5 0
-8 3 -5 8 2 4 -21 7 -52 7 -31 0 -60 3 -63 8 -3 5 -9 0 -11 -11z m347 -9 c-2
-10 -4 -21 -4 -24 -1 -4 -7 -9 -14 -12 -18 -7 -15 32 4 44 18 11 18 12 14 -8z
m-225 -8 c0 -2 -9 -3 -19 -2 -11 0 -18 5 -15 9 4 6 34 0 34 -7z m160 11 c0 -3
-4 -8 -10 -11 -5 -3 -10 -1 -10 4 0 6 5 11 10 11 6 0 10 -2 10 -4z"/>
<path d="M3202 1551 c-8 -4 -13 -11 -13 -15 1 -3 1 -7 0 -8 -8 -30 -4 -59 9
-70 9 -7 13 -8 9 -2 -4 7 0 14 8 17 9 4 12 1 9 -7 -3 -7 1 -18 9 -24 11 -9 13
-8 12 6 -2 25 -15 43 -26 36 -6 -3 -5 3 2 14 7 12 16 19 20 17 3 -3 14 4 24
15 17 19 17 19 -6 15 -12 -3 -26 -10 -30 -16 -5 -8 -8 -8 -13 0 -4 6 -4 16 -1
21 7 12 4 12 -13 1z m12 -42 c-3 -5 -10 -7 -15 -3 -5 3 -7 10 -3 15 3 5 10 7
15 3 5 -3 7 -10 3 -15z"/>
<path d="M2786 1511 c-14 -26 -14 -30 0 -42 11 -9 18 -9 26 -1 8 8 7 13 -5 18
-9 3 -17 10 -17 16 0 5 4 7 8 4 4 -2 8 4 8 15 0 25 -3 24 -20 -10z"/>
<path d="M4168 1522 c-8 -10 -8 -13 -1 -9 6 4 14 3 18 -3 7 -11 25 -4 25 10 0
16 -29 18 -42 2z"/>
<path d="M3395 1506 c-17 -26 -12 -50 8 -43 7 2 13 9 13 15 1 7 2 18 3 25 1 7
4 8 9 2 4 -5 15 -17 25 -24 17 -14 18 -13 15 5 -2 12 3 19 12 19 8 0 14 -6 12
-13 -2 -9 4 -11 17 -7 15 5 19 2 18 -14 -1 -11 -3 -18 -6 -16 -2 3 -11 -1 -20
-8 -14 -10 -14 -10 -3 5 12 15 11 17 -7 15 -12 -1 -21 -4 -21 -8 0 -11 24 -26
42 -26 17 0 42 43 33 57 -3 5 2 13 11 18 10 6 -8 8 -53 7 -37 -1 -73 2 -80 7
-8 6 -17 1 -28 -16z"/>
<path d="M3956 1521 c-3 -5 1 -11 9 -14 9 -4 12 -1 8 9 -6 16 -10 17 -17 5z"/>
<path d="M3040 1505 c-7 -9 -20 -13 -28 -10 -10 4 -9 -3 5 -27 11 -19 26 -32
36 -30 8 1 18 -2 22 -8 5 -8 11 -7 21 1 11 9 14 9 14 0 0 -7 5 -9 11 -5 8 4
-2 14 -25 26 -25 13 -36 24 -32 34 3 8 0 14 -7 14 -8 0 -6 4 3 10 8 5 10 10 4
10 -6 0 -17 -7 -24 -15z m7 -12 c-4 -3 -2 -12 5 -20 8 -10 8 -17 -1 -26 -10
-9 -11 -8 -5 6 3 10 3 17 -2 16 -21 -4 -26 2 -14 16 7 8 15 15 18 15 3 0 2 -3
-1 -7z"/>
<path d="M3590 1516 c0 -2 7 -7 16 -10 8 -3 12 -2 9 4 -6 10 -25 14 -25 6z"/>
<path d="M3995 1504 c-18 -19 -15 -39 6 -39 9 0 14 11 14 28 1 32 1 32 -20 11z"/>
<path d="M3365 1502 c-12 -8 -13 -27 -4 -37 4 -3 9 6 11 20 3 14 5 25 4 25 0
0 -6 -4 -11 -8z"/>
<path d="M3890 1495 c-17 -20 -3 -36 27 -31 36 7 40 14 17 31 -24 18 -29 18
-44 0z m39 -18 c0 -8 -2 -8 -6 1 -4 10 -8 10 -21 0 -15 -12 -16 -11 -3 4 14
19 32 15 30 -5z"/>
<path d="M3423 1472 c0 -9 4 -23 10 -30 8 -11 12 -11 18 0 13 19 11 26 -9 37
-15 8 -19 6 -19 -7z"/>
<path d="M4401 1467 c-7 -9 -1 -17 19 -29 22 -13 31 -14 39 -5 7 9 1 17 -19
29 -22 13 -31 14 -39 5z"/>
<path d="M3667 1439 c7 -7 15 -10 18 -7 3 3 -2 9 -12 12 -14 6 -15 5 -6 -5z"/>
</g>
</svg>
